<?xml version="1.0" encoding="utf-8"?>
<!-- Generator: Adobe Illustrator 19.2.1, SVG Export Plug-In . SVG Version: 6.00 Build 0)  -->
<svg version="1.1" id="Layer_1" xmlns="http://www.w3.org/2000/svg" xmlns:xlink="http://www.w3.org/1999/xlink" x="0px" y="0px"
	 width="294px" height="304px" viewBox="0 0 294 304" style="enable-background:new 0 0 294 304;" xml:space="preserve">
<style type="text/css">
	.st0{fill:#F3E4B2;}
</style>
<g>
	<g>
		<path class="st0" d="M15.5,138L15.5,138C15.6,138.1,15.6,138.1,15.5,138C15.5,138.1,15.5,138,15.5,138z"/>
		<path class="st0" d="M110,221.9c0.4-0.3,0.8-0.5,1.3-0.6c2.8-0.7,4.6-2.7,7-4c0.5-0.8,1.3-1.2,2.2-1.6c1.7-0.9,3.3-2,4.5-3.4
			c0.2-0.3,0.6-0.5,0.8-0.7c0.9-0.9,2-1.7,2.7-2.7c0.8-1,1.6-2.1,2.5-3.1c0.9-1,1.4-2.3,2.1-3.5c0.2-0.4,0.5-0.7,0.8-1
			c1-1.4,1.9-2.8,2.8-4.2c0.9-1.3,1.8-2.8,2-4.5c0-0.3,0.2-0.5,0.3-0.8c1.2-1.6,1.6-3.4,2.1-5.1c0.4-1.3,0.6-2.7,1-4.1
			c0.7-2.4,1-4.9,0.7-7.4c-0.2-1.3-0.6-2.6-0.6-3.9c0-1.1-0.4-2-0.8-3c-0.7-1.5-1.5-2.9-2.5-4.3c-3.2-4.5-7.8-7-14-6.9
			c-5.3,0.1-10.7,0.4-15.9,1.2c-0.4,0.1-0.8,0-1.2,0.1c-1.6,0.3-14.6,3.2-15.6,3.3c-0.8,0.1-1.6,0.2-2,1c-0.1,0.2-0.5,0.4-0.7,0.5
			c-0.6,0.2-1.3,0.2-1.9,0.3c-0.6,0.2-7.9,2-8.2,1.7c-0.7,0.5-1.8,0.2-2.7,0.8c-0.9,0.5-2.1,0.5-3.2,0.7c-1.5,0.4-3.1,0.7-4.7,0.9
			c-1.8,0.3-3.5,0.6-5.1,1.2c-0.5,0.2-1.1,0.2-1.6,0.3c-0.8,0.1-1.7,0-2.4,0.2c-1.8,0.7-3.4,1.5-5.1,2.2c-0.1-0.2-0.3-0.4-0.5-0.6
			c-0.5,0.3-1.1,0.5-1.6,0.8c-1-0.9-1.1-2.3-2.4-2.9c-0.1,0-0.1-0.4,0-0.6c0.2-0.4,0-0.6-0.1-1c-0.6-1.4-1.1-2.8-1.7-4.1
			c-0.1-0.3-0.3-0.5-0.5-0.7c-0.9-0.7-1.2-1.5-1.3-2.5c0-0.5-0.1-1.1-0.4-1.6c-0.6-1.1-1.3-2.1-2-3.1c-1.3-2.1-2.7-4.1-4-6.2
			c-0.5-0.7-0.7-1.5-1.2-2.3c-1.2-1.9-2.6-3.7-3.8-5.6c-1.6-2.6-2.9-5.3-4.6-7.8c-1-1.5-1.5-3.2-2.5-4.7c-1-1.6-1.7-3.5-2.5-5.2
			c-0.1-0.3-0.2-0.5-0.4-0.8c-0.8-1.3-1.7-2.5-2.5-3.8c-0.4-0.6-0.7-1.3-0.9-1.9c-1.2-3.6-2.4-7.2-2.9-10.9
			c-0.4-2.7-0.2-5.4,0.2-8.1c0.7-4.6,2.7-8.7,6.1-12.3c0.6-0.6,1.1-1.1,2-1.4c1.2-0.4,2.1-1.2,3.4-1.5c1.4-0.4,2.6-1.3,3.7-1.9
			c2.5,0.5,4.7,1,7.1,1.5c0.1,0.1,0.3,0.5,0.6,0.8c2.1,2.3,2.7,4.9,2.9,7.7c0.2,2.1-0.9,4-1.1,6.1c-0.2,1.3-1,2.6-1.1,4
			c-0.1,1.4-0.7,2.7-1,4.1c-0.2,0.8-0.5,1.6-0.8,2.5c0.2,0.2,0.5,0.5,1,0.9c1.2-3.7,2.4-7.1,3.5-10.5c0.6,0.1,0.5,0.4,0.5,0.7
			c0.1,0.5,0.7,0.3,0.9,0.5c0.1,0.1,0,0.5-0.1,0.5c-0.3,0.1-0.6,0-0.8,0c-0.2,0.5-0.2,1-0.5,1.2c-1,0.9-1,2.2-1.3,3.3
			c-0.3,0.9-0.3,2-0.7,2.8c-0.5,1-0.4,2-0.2,3.1c0.1,0.3,0.2,0.7,0.5,0.9c1.2,1,2.6,1.5,4.2,0.9c1.8-0.6,3.6-1.3,5.4-1.9
			c1.4-0.4,2.1-1.2,2.5-2.3c0.4-1,0.9-2,1.5-2.8c0.7-0.9,1.1-1.8,1.4-2.8c0.7-2.3,1.3-4.6,1.9-6.9c0.5-1.7,1.2-3.5,0.6-5.3
			c0-0.1,0-0.1,0-0.2c0.2-1.3-0.1-2.6-0.3-3.9c-0.2-1-0.3-2.1-0.4-3.1c-0.1-1.3-0.3-2.5-1.3-3.5c-0.3-0.3-0.5-0.7-0.6-1.1
			c-0.3-0.7-0.6-1.4-1.3-2c-0.3-0.2-0.4-0.6-0.5-0.9c-0.5-0.9-0.9-1.8-1.3-2.4c-0.7-0.3-1.3-0.5-1.7-0.8c-1.8-1.4-3.6-2.5-6-2.8
			c-0.9-0.1-1.8-0.5-2.7-0.8c-0.9-0.2-1.8-0.6-2.8-0.3c-0.4,0.1-1,0-1.4-0.2c-2.1-1.1-4.1-0.7-6.3-0.3c-0.6,0.1-1.3,0.3-1.9,0.3
			c-1.9,0-3.6,0.4-5.4,1.1c-2.5,1-5,2-7.2,3.4c-0.7,0.5-1.4,0.9-2.2,1.3c-2.3,1.3-4.3,2.7-5.8,4.7c-0.2,0.2-0.3,0.5-0.6,0.7
			c-1.3,0.9-2,2.2-2.7,3.4c-0.4,0.8-0.9,1.5-1.3,2.3c-0.9,1.9-2,3.7-2.7,5.6c-0.8,2-1,4.1-1.9,6c-0.2,0.4-0.2,0.8-0.3,1.2
			c-0.2,2-0.4,4-0.7,6c-0.2,1.6-0.1,3.2,0.2,4.7c0.7,3,1.3,6,2.2,9c1.2,3.9,2.7,7.7,5,11.3c0.1,0.2,0.3,0.5,0.4,0.7
			c0.6,1.1,1.2,2.2,1.8,3.3c0.2,0.4,0.7,0.1,1,0.2c0,0.6-0.4,1.2,0.3,1.7c0.5,0.4,1.1,1,1.1,1.5c-0.1,1,1.4,0.7,1.5,1.5
			c0,0.1,0.1,0.2,0.2,0.3c0,0,0,0,0,0c0,0,0,0,0.1,0c0.3,0.5,0.6,1,0.9,1.5l-0.1,0v0.1v0l0,0c0.2,0.3,0.4,0.6,0,0.9c0,0,0-0.1,0-0.1
			c0,0,0,0.1,0,0.1l0.1,0c0.1,0.3,0.2,0.7,0.4,0.9c0.2,0.3,0.7,0.4,0.8,0.7c0.8,1.5,1.6,3,2.7,4.4c1.1,1.4,2,3,2.9,4.5
			c0.3,0.4,0.7,0.8,0.9,1.2c1.6,2.7,3.2,5.5,4.8,8.2c1.2,2.1,2.6,4.1,3.5,6.4c0.3,0.8,0.8,1.5,1.2,2.3c0.7,1.4,1.3,2.8,2,4.2
			c0.6,1.3,1.5,2.5,1.8,3.8c-2.3,0.6-4.4,1.2-6.8,1.9c0.5,1.3,1.1,2.4,2,3.5c0.2,0.2,0.4,0.4,0.7,0.6c1.7,1.1,3.6,1.9,5.7,2.2
			c0.9,0.1,1.7,0.4,2.5,0.9c0.2,0.8,0.2,1.6,0.6,2.4c0.6,1.4,1.2,2.7,1.5,4.1c0.1,0.6,0.5,1.2,0.4,1.8c-0.2,1,0.4,1.7,1,2.5
			c-1,1.7-0.3,3.4-0.3,5.1c0,0.2,0.6,0.4,0.5,0.6c-0.1,0.3-0.4,0.6-0.5,0.9c-0.1,0.3-0.1,0.7-0.1,1c0,0.5,0.1,1,0.1,1.5
			c0,0.5,0.2,1.2-0.1,1.5c-1,1-0.9,2.2-1.1,3.4c-1.2,0.5-1.8,1.5-2.1,2.5c-0.6,0.2-1.3,0.2-1.6,0.5c-1.5,1.2-3.6,1.4-5.3,2.2
			c-0.5,0.2-1.5,0.2-2,0c-0.4-0.2-0.5-0.4-0.9-0.2c-0.5,0.2-0.9,0.5-1.4,0.7c-0.8-0.6-1.7,0.2-2.5,0.1c-0.4-0.4-0.8-0.9-1.3-1
			c-1.5-0.4-2.4-1.4-3.5-2.2c-1.9-1.5-3.7-3.1-4.8-5.2c-0.9-1.7-1.6-3.5-2.1-5.3c-0.2-1-0.4-1.9,0.1-2.9c0.1-0.3,0.1-0.6,0.1-0.8
			c-0.1-2.7,1.1-5.2,1.8-7.8c0.2-0.8,0.7-1.4,1.7-1.6c0.2,0,0.4-0.2,0.4-0.2c0.2-2-0.1-3.8-1.4-5.4c-0.6-0.2-1.3-0.5-1.9-0.7
			c-0.3-0.6,0.2-1.4-1.1-1.1c0.2-0.7,0.3-1.3,0.5-1.9c-1.5-0.1-2.8-0.2-4.2-0.4c-1.6-0.3-1.6-0.3-2.3,0.6c-0.2,0.3-0.4,0.6-0.8,1
			c-0.6-0.5-1.2-0.4-1.7,0.1c-0.5,0.5-1.1,1-1.5,1.6c-1.9,2.8-3.5,5.7-4.3,8.8c-0.7,2.5-1.9,4.9-1.3,7.5c0,0.1-0.1,0.3-0.1,0.4
			c0,0.7,0.1,1.4,0.1,2.1c0,2.3,0.9,4.4,1.4,6.5c0.6,2.5,1.9,4.7,3,7c1.9,3.6,4.4,6.6,8.3,8.8c0.2,0.1,0.4,0.3,0.6,0.4
			c0.9,0.7,1.8,1.4,2.8,2c1,0.6,1.8,1.4,3.1,1.5c0.5,0.7,1.6,0.3,2.2,0.7c1,0.7,2.2,0.8,3.4,0.9c1.1,0.1,2.2,0.4,3.3,0.6
			c1,0.2,2.1,0.4,3.1,0.4c1.9,0,3.7-0.1,5.6-0.1c0.9,0,1.7-0.2,2.3-0.9c0.2-0.2,0.7-0.3,1-0.5c1.2-0.8,2.7-1.1,4.1-1.6
			c0.7-0.3,1.5-0.6,2-1.1c0.7-0.7,1.4-1.3,2.3-1.9c0.7-0.5,1.6-1,2.1-1.7c2-2.3,4.1-4.5,5.5-7.1c0.8-1.4,1.7-2.8,2.4-4.3
			c0.5-1.1,1-2.3,1.1-3.5c0.2-1.9,0.4-3.7,1-5.5c0.3-0.8,0.5-1.7,0.3-2.5c-0.4-1.8-0.2-3.6-1.1-5.3c-0.1-0.2,0-0.5,0-0.8
			c0-1.7-0.6-3.5-1.5-5.1c-0.4-0.8-0.6-1.7-0.7-2.6c-0.1-0.7-0.1-1.4-0.4-2c-0.2-0.4-0.2-0.8-0.2-1.3c0.5-0.2,1-0.5,1.5-0.7
			c2.7-0.7,5.4-1.4,8.1-2.1c1.1-0.3,2.1-0.7,3.2-0.8c2-0.2-0.4,0.1,1.4-0.5c1-0.3,2-0.7,3-0.8c1.8-0.2,3.5-0.6,5.2-1.1
			c0.8-0.2,1.7-0.5,2.5-0.2c-0.1,1.9,0,3.7-0.3,5.5c-0.2,1.6-0.3,3.2-0.4,4.8c-0.2,3.7-0.5,7.4-0.5,11.1c0,2.7-0.4,5.4-0.4,8.1
			c0,0.5,0.1,1,0,1.5c-0.2,2.5-0.4,5.1-0.7,7.6c-0.1,0.5,0.3,1,0.3,1.4c0,0.5-0.4,1-0.6,1.6c-0.1,0.3-0.1,0.6-0.1,0.8
			c0.2,0.7,0,1.2-0.4,1.8c-0.5,0.8-0.5,1.5,0.1,2.3c0.5,0.7,0.6,1.5,0.4,2.4c-0.2,1.2-0.1,2.4-0.2,3.5c0,0.1,0.2,0.2,0.3,0.3
			c0.3-0.3,0.6-0.6,0.8-0.9c0.2,0.1,0.4,0.2,0.5,0.3c0.7,1-0.3,2.2,0.4,3.2c0.1,0.1,0,0.3-0.1,0.4c-0.7,1.7-0.4,3.4-0.6,5.1
			c-0.3,3-0.2,8.4-0.3,11.4c-0.1,1.8-0.1,3.6-0.2,5.4c-0.1,1.8-0.1,3.6-0.1,5.4c-0.1,3.2-0.2,6.4-0.3,9.6c0,1-0.1,10.9-0.2,15.2
			c0,0-0.4,4.4,0.3,6.9c0.2,0.8,0.2,1.7,0,2.5c-0.3,1.4,0,2.7,0.1,4.2c0.8-0.2,1.5-0.4,1.9-0.6c0-0.9-0.2-1.7,0.1-2.4
			c0.3-0.8-0.6-1.6,0.3-2.4c0.4,0.5,0.7,1,1,1.4c0,0,0,0,0,0c1.3,0.1,2.6,0.2,3.8,0.3c0.7-0.9,0.9-1.8,1.2-2.8
			c0-0.1,0.2-0.1,0.3-0.1c0.2,0.4,0.3,0.8,0.5,1.1c1-0.4,2-0.8,2.5-1.5c0.5-2.4,0.1-4.9,1.3-7.1c0.1-0.2-0.1-0.4-0.1-0.6
			c-0.1-1.6,0-2.2,0-2.2c0.1-3,0.5-11.8,0.5-12c0-1.7,0-3.5-0.1-5.2c-0.2-1.8-0.2-3.6,0-5.4c0-0.5,0.2-1,0.1-1.5
			c-0.4-3.3,0.4-6.5,0.3-9.8c0-0.2,0-0.4,0.1-0.6c0.7-1.2,0.4-4.7,0.3-5.9c-0.1-1.8-0.2-3.6,0-5.4c0.3-2.2,0.5-4.4,0.7-6.6
			c0-0.3,0-0.6,0.1-0.8c0.1-0.3,0.3-0.7,0.6-0.8c0.8-0.4,5.8-1.7,6.7-2c1-0.4,2-0.8,3.1-1.2c0.6-0.2,1.1-0.6,1.7-0.8
			C108,223,109,222.6,110,221.9z M46.9,90.6c0.2,0.1,0.4,0.1,0.4,0.2c0,0.2-0.1,0.3-0.2,0.5c-0.1,0-0.4-0.1-0.4-0.1
			C46.8,91,46.8,90.8,46.9,90.6z M46.9,95.5c0.1,0.1,0.1,0.2,0.2,0.3c-0.1,0-0.1,0.1-0.2,0.1c-0.1-0.1-0.1-0.2-0.2-0.3
			C46.7,95.6,46.8,95.5,46.9,95.5z M15.5,138C15.5,138,15.5,138.1,15.5,138C15.6,138.1,15.6,138.1,15.5,138L15.5,138z M22,146.3
			c0,0,0-0.1-0.1-0.1c0,0,0.1,0,0.1,0c0,0,0,0.1,0.1,0.1C22,146.3,22,146.3,22,146.3z M25.5,151.6c0.7,0,0.7,0,1.4,1.7
			C26.1,152.7,25.8,152.2,25.5,151.6z M27.8,155c0,0-0.1-0.1-0.1-0.1c0.1,0,0.2-0.1,0.2-0.1c0,0.1,0,0.1,0,0.2
			C28,154.9,27.9,155,27.8,155z M28.8,156.8c0-0.1-0.1-0.1-0.1-0.2c0-0.1,0-0.2,0-0.4c0.1,0.1,0.2,0.2,0.2,0.3
			C28.9,156.6,28.8,156.7,28.8,156.8z M34.7,163.8c-0.7-0.5-0.7-0.5-0.7-1.7C34.2,162.7,34.4,163.2,34.7,163.8z M31.4,158
			c0,0.1,0,0.1,0,0.2c-0.1,0-0.1,0-0.1,0c0,0,0-0.1-0.1-0.2C31.2,158,31.3,158,31.4,158z M30.3,156.4c0.1,0.1,0.2,0.2,0.3,0.3
			c-0.1,0.1-0.2,0.2-0.2,0.2c0-0.1-0.1-0.1-0.1-0.2C30.2,156.7,30.2,156.5,30.3,156.4z M32.2,163.4L32.2,163.4
			C32.2,163.4,32.2,163.4,32.2,163.4c0-0.1,0-0.2,0-0.4c-0.1-0.2-0.3-0.3-0.5-0.5c0,0,0,0,0,0c0-0.4-0.1-0.8-0.1-1.2
			c0,0,0-0.1-0.1-0.1c0,0,0-0.1,0-0.1c-1.1-0.9-1.1-1-1.8-2.9c0.3-0.2,0.5-0.3,0.7,0.1c0.3,0.6,0.5,1.1,0.8,1.7
			c0.1,0.3,0.2,0.7,0.3,1.1c0,0,0.1,0,0.1,0.1c0,0,0,0.1,0,0.1c0.4,0.4,0.2,0.8,0.1,1.2c0,0,0,0,0,0c0.3,0.1,0.5,0.2,0.5,0.5
			C32.3,163.2,32.3,163.3,32.2,163.4c0.2,0,0.3,0.1,0.5,0.1C32.6,163.5,32.4,163.5,32.2,163.4z M35.7,168.7
			c-0.6-0.4-0.6-0.9-0.7-1.3c0,0-0.1,0-0.1-0.1c0,0,0-0.1,0-0.1c-0.2-0.2-0.4-0.4-0.5-0.6c0,0,0,0,0,0c0,0,0,0,0,0
			c-0.1-0.2-0.2-0.4-0.3-0.5c-0.2-0.1-0.3-0.1-0.4-0.2c0,0,0,0,0,0v-0.8c0.3,0.2,0.3,0.2,0,0.8v0c0.2,0,0.3,0.1,0.4,0.2
			c0.2,0.1,0.4,0.2,0.3,0.5c0,0,0,0,0,0c0,0,0,0,0,0c0.4,0.1,0.5,0.3,0.5,0.6c0,0,0.1,0.1,0.1,0.1c0,0,0,0.1,0,0.1
			C35.4,167.7,36,168,35.7,168.7z M37.4,147.1c0.2,0.2,0.4,0.4,0.6,0.6c-0.2,0.1-0.4,0.2-0.5,0.3c-0.2-0.2-0.3-0.4-0.5-0.7
			C37.2,147.2,37.4,147,37.4,147.1z M36.2,145.5c0.1,0,0.3,0.1,0.4,0.2c-0.1,0-0.1,0.1-0.1,0.1c-0.1,0-0.2-0.1-0.3-0.1
			C36.1,145.6,36.1,145.5,36.2,145.5z M39.2,176.3c-1.3-0.7-1-1.9-1.4-2.8c-0.5-0.9-1-1.9-1.4-2.8c0.6,0.3,1.1,0,1.6-0.1
			c0.2,0.4,0.5,0.8,0.5,1.3C38.3,173.4,39.7,174.7,39.2,176.3z M44.3,186.9c-0.1-0.1-0.1-0.2-0.1-0.3c0.1,0,0.3-0.1,0.3-0.1
			c0.1,0.1,0.1,0.2,0.1,0.3C44.5,186.8,44.3,186.9,44.3,186.9z M16.9,184.2c0,0.1,0.1,0.1,0,0.2c0,0-0.1,0.1-0.2,0.1
			c0-0.1-0.1-0.2-0.1-0.3C16.7,184.3,16.8,184.3,16.9,184.2z M9.3,183.9c-0.6-0.3-0.3-0.9-0.1-1c0.7-0.7,1.1-1.7,2.8-1.7
			C11,182.2,10.1,183,9.3,183.9z M47,195.8c-0.1,0-0.2-0.1-0.2-0.1c-0.1-0.6-0.1-1.3-0.1-1.9c0,0,0,0-0.1-0.1c0,0,0,0,0-0.1
			c-0.7-0.5-0.6-1.2-0.9-1.8c0.6-0.3,0.7,0.1,0.7,0.3c0.1,0.5,0.1,1,0.1,1.6c0,0,0,0,0.1,0c0,0,0,0.1,0,0.1
			C47.4,194.4,46.7,195.1,47,195.8z M47.5,216.7C47.5,216.7,47.5,216.7,47.5,216.7c0,0.1-0.1,0.1-0.1,0.2c0,0,0,0.1,0,0.1
			C47.4,216.9,47.4,216.8,47.5,216.7C47.5,216.7,47.5,216.7,47.5,216.7c0.1-0.1,0.2-0.3,0.3-0.4c0,0,0.1,0.1,0.1,0.1
			C48,216.7,47.8,216.8,47.5,216.7z M53.1,201.2c0-0.1-0.1-0.1-0.1-0.2c0-0.1,0.1-0.1,0.1-0.1c0,0.1,0.1,0.1,0.1,0.2
			C53.2,201.1,53.2,201.1,53.1,201.2z M54.6,191.5c0,0-0.1-0.1-0.1-0.1c0-0.2,0.1-0.4,0.2-0.7c0.1,0.3,0.2,0.5,0.2,0.7
			C54.8,191.3,54.7,191.4,54.6,191.5z M82.1,291.5c0-0.1-0.1-0.2-0.1-0.3c0,0,0.1-0.1,0.2-0.1c0.1,0.1,0.1,0.2,0.2,0.3
			C82.2,291.4,82.2,291.5,82.1,291.5z M84.6,282.9c0,0,0,0.1,0,0.2c-0.1,0-0.1,0-0.2,0.1c0-0.1,0-0.2,0-0.2
			C84.5,282.9,84.6,282.9,84.6,282.9z M84.3,294c0,0,0-0.1,0-0.1c0.1,0,0.1,0,0.2-0.1c0,0.1,0,0.1,0.1,0.2
			C84.4,294,84.4,294,84.3,294z M84.2,288.7c0-1.2,0-2.4,0-3.6l0.5-0.2c0.2,1.4,0.4,2.9,0.5,4.3c0,0.3-0.1,0.5-0.2,0.9
			C84.4,289.8,84.3,289.3,84.2,288.7z M85.4,292c-0.1-0.1-0.2-0.1-0.3-0.2c0,0,0.1-0.1,0.1-0.1c0.1,0.1,0.2,0.1,0.3,0.2
			C85.6,291.9,85.5,292,85.4,292z M87.5,254.1c0,0.1,0,0.1,0.1,0.2c0,0-0.1,0.1-0.1,0.1c0-0.1-0.1-0.1-0.1-0.2
			C87.4,254.2,87.4,254.2,87.5,254.1z M87.4,258.5c0,0,0.1,0,0.2-0.1c0,0.1,0.1,0.1,0.1,0.2c-0.1,0-0.2,0-0.3,0.1
			C87.4,258.7,87.3,258.6,87.4,258.5z M87.7,263.9c-0.1-0.1-0.1-0.2-0.2-0.3c0.1-0.1,0.3-0.1,0.4-0.2c0.1,0.1,0.1,0.2,0.2,0.3
			C87.9,263.8,87.8,263.9,87.7,263.9z M88,251.6c-0.1-0.1-0.1-0.1-0.2-0.2c0,0,0.1-0.1,0.1-0.1c0,0.1,0.1,0.1,0.1,0.1
			C88.1,251.5,88,251.5,88,251.6z M89,232.2l-0.1,0.1l-0.1-0.1H89z M88.6,248.8c-0.5-0.7-0.5-0.7,0-2.2V248.8z M88.6,238.7
			c-0.2-0.2-0.4-0.4-0.4-0.5c0-0.1,0.2-0.3,0.3-0.4c0.1,0.1,0.4,0.2,0.4,0.3C88.9,238.3,88.7,238.4,88.6,238.7z M88.9,236.5
			c-0.1,0-0.2,0-0.2,0c-0.4-0.2-0.5-0.5-0.3-0.9c0-0.1,0.1-0.1,0.1-0.2c0.1,0,0.3,0,0.4,0.1C89.2,235.9,89.2,236.4,88.9,236.5z
			 M115.2,210.4c0.4-0.5,0.7-0.8,1-1.1c0.1-0.1,0.3,0,0.4,0c0.1,0,0.1,0.1,0.1,0.2C116.6,210.1,116.5,210.6,115.2,210.4z
			 M129.5,183.7h0.2v0.7h-0.2V183.7z M95.6,209.8c0.1-0.5,0.2-1.1,0.2-1.7c0-2.6,0.5-5.1,0.4-7.7c-0.1-3.9,0.2-7.8,0.3-11.7
			c0-1.1,0-2.2-0.1-3.3c-0.1-2.6,0.8-9.5,0.1-11.3c1.7-0.4,7.3-1.7,8.8-1.9c1.8-0.2,3.7-0.6,5.4-1.1c3.5-1,7-1.1,10.6-1
			c2.8,0.1,5,1.5,6.2,3.8c0.5,0.9,0.9,1.8,1.2,2.8c0.4,1.2,0.7,2.3,0.3,3.7c-0.4,1.7-0.3,3.5-0.6,5.2c-0.2,1.7-0.9,3.4-1.9,4.9
			c-1.5,2.4-3.2,4.8-4.8,7.2c-0.6,0.9-1.4,1.8-2,2.8c-0.7,1.1-2,1.8-3.3,2.4c-0.7,0.3-1.4,0.6-1.5,1.5c-0.1,0.5-0.7,0.9-1.5,0.9
			c-0.5,0-1.1,0.3-1.5,0.6c-1,0.7-2,1.4-2.9,2.2c-1.3,1.2-2.6,2.2-4.6,2.4c-0.4,0-0.9,0.3-1.3,0.5c-1,0.6-6.2,2.1-7.2,2.7
			C95.4,212.5,95.3,211.2,95.6,209.8z M103.7,219.6c-1.6,0.8-7.5,2.4-9.4,3.2c1-1.2,1.3-1.6,2.2-1.8c1.7-0.5,7.1-2.3,8.5-3.2
			c1-0.7,2.1-1.3,3.3-1.7c0.4-0.2,0.9-0.4,0.9-0.9l0,0v0l0,0c0.8-0.2,1.2-0.7,1.6-1.3c0.2-0.4,0.5-0.6,1.1-0.5
			c0.1-0.4,0.4-0.8,1-0.8c0,0,0,0,0-0.1c0,0,0.1-0.1,0.1-0.1c0.3-1,0.4-1,1.8-1.5c-0.4,0.8-1.2,1-1.8,1.5c0,0,0,0.1,0,0.1
			c0,0,0,0-0.1,0c-0.1,0.7-0.1,0.7-1,0.8c0,0.1,0.2,0.3,0.1,0.4c-0.6,0.8-1.4,1.4-2.4,1.6c-0.1,0-0.3-0.1-0.4-0.2l0,0
			c0.1,0.3,0.2,0.6,0.3,0.9C107.5,217.4,105.6,218.6,103.7,219.6z"/>
		<path class="st0" d="M183.5,223.3c0.1-0.3,0-0.6-0.1-0.8c-0.1-1-0.1-1.9-0.3-2.9c-0.3-2.1-0.6-4.3-0.6-6.4c0-0.2-0.1-0.4-0.2-0.6
			c-0.1-0.3-0.1-0.7-0.1-1c0.4-2.4,0.1-4.7-0.4-7c-0.2-1-0.5-2.1-0.4-3.1c0.1-1.5,0-2.9-0.3-4.4c-0.2-1.5,0.1-2.9-0.2-4.3
			c-0.2-1.5-0.3-3.1-0.3-4.6c0-2.6-0.1-5.1-0.6-7.7c-0.1-0.8-0.2-1.5-0.1-2.3c0.2-1.3,0.1-2.6-0.5-3.9c-0.1-0.3-0.2-0.7-0.1-1
			c0.5-1.1,0.3-2.2,0.1-3.3c-0.1-1-0.4-2.1-0.3-3.1c0.2-1.8-0.1-3.6-0.2-5.4c-0.1-1.7-0.5-3.4-0.3-5.2c0.1-0.5-0.1-1.2-0.4-1.6
			c-0.8-1.1-1.8-2.2-3.5-2.3c-1.4-0.1-2.6-0.7-3.8-1.3c-0.4-0.2-0.8-0.4-1.3-0.5c-1.3-0.2-2.6-0.3-3.8-0.5c-1-0.2-2-0.5-3-0.8
			c-0.4-0.1-0.7-0.3-1-0.4c-0.2,0.2-0.5,0.4-0.5,0.6c-1.9,4.2-3.2,8.5-4.3,12.8c-0.8,3.3-1.5,6.7-2.9,9.9c-0.2,0.5-0.3,0.9-0.4,1.4
			c-0.3,1.2-0.7,2.4-1.1,3.6c-1.3,4.3-2.7,8.6-4,12.9c-0.8,2.4-1.1,4.9-2.2,7.3c-0.4,0.9-0.7,1.8-1,2.8c-0.6,2-1.2,4-1.9,6
			c-0.5,1.5-0.8,3.1-1.4,4.6c-0.7,1.6-1.1,3.3-1.7,5c-1,2.8-2,5.6-2.9,8.4c-0.4,1.3-0.6,2.7-1.3,3.9c-1,0.3-1.9,0.5-2.9,0.8
			c-2.3,0.7-4.6,1.3-6.9,2c-1.7,0.5-3.3,1-5,1.5c-1.6,1.4-3.9,1.2-5.9,1.8c-0.8,0.2-1.8,0.4-2.6,0.3c-2-0.3-4-0.2-5.9-1.1
			c-0.3-0.1-0.6-0.1-1.4-0.3c0.7,0.6,0.9,0.8,1.2,1c0.3,0.2,0.6,0.4,0.9,0.7c-0.1,0.6-0.3,1-0.3,1.5c-0.1,0.7,0.2,1,1,1.2
			c1.2,0.3,2.6,1.3,2.7,2.3c0.3,1.8,1.9,2.6,3.6,3c1.8,0.4,3.7,0.3,5.5,0.1c3.8-0.5,7.7-1.1,11.3-2.4c0.5-0.2,1.1-0.3,1.6-0.4
			c0.5,0,1-0.5,1.7,0c-0.3,1-0.6,2.1-0.9,3.3c0.1,0.1,0.6,0.2,0.5,0.6c-0.1,0.4-0.2,0.8-0.2,1.2c0,1-0.4,1.9,0.1,2.9
			c0.8,0.2,0.8,0.2,1.5-0.6c0-0.1,0.1-0.2,0.1-0.1c1.1,0.4,1.5-0.7,2.3-0.9c0.2,0,0.3,0,0.5,0c0.2,0.3,0.5,0.5,0.8,0.8
			c1.4-1,3-1.3,4.7-2c0.2-1,0.5-2,0.8-3.1c0.1-0.4,0.1-0.9,0.3-1.2c0.6-0.7,1.1-1.3,1.2-2.2c1-0.5,0.8-1.4,0.8-2.2
			c1.2-0.6,1.9-1.6,3.2-2c1.6-0.5,3.1-1.1,4.6-1.7c1.6-0.6,3.1-1.2,4.6-1.9c3-1.3,6-1.4,9.1-0.4c0.2,0.7,0.6,1.4,0.5,2
			c-0.2,1,1,1.2,1.2,2c0.1,0.3,0.1,0.5,0.2,0.8c0.4,1,0.8,1.9,1.2,3.1c-0.1,0.2-0.4,0.5-0.7,0.8c0.6,1.4,2.3,2.2,2.3,3.5
			c1.3,1.3,2.9,0.5,4.2,1c0.1,0,0.4,0,0.5-0.1c0.7-0.7,1.9-0.6,2.7-1.2c0.3-0.2,0.7-0.5,0.7-0.8c0.5-1.6,0.9-3.1,0.7-4.7
			c-0.2-1,0-2,0.1-3.1c0-0.2,0.1-0.4,0.2-0.6c0.7-1.8,0.8-3.7,0.6-5.5C183.4,226.2,183.1,224.7,183.5,223.3z M136.7,244
			c-0.1-0.1-0.2-0.2-0.2-0.3c0.1-0.6,0.3-1.1,0.4-1.7C137.1,242.7,137.6,243.4,136.7,244z M137.1,239.7c-0.1,0-0.2-0.1-0.2-0.1
			c0-0.1,0.1-0.2,0.2-0.3c0.1,0.1,0.1,0.2,0.2,0.3C137.3,239.6,137.2,239.7,137.1,239.7z M139.1,243.9c0,0-0.1,0-0.1,0
			c0-0.1,0.1-0.1,0.1-0.2V243.9z M162.9,226.3c0,0,0-0.1,0-0.1c0.1,0,0.1,0,0.2,0c0,0.1,0,0.1,0,0.2
			C163,226.3,162.9,226.3,162.9,226.3z M166.5,220.1c-2.1-0.1-4.2,0.1-6.3,0.4c-1.9,0.3-3.8,0.6-5.5,1.5c0,0,0,0,0,0
			c0,0-0.1,0-0.1,0c0,0-0.1-0.1-0.1-0.1c0.1,0,0.2,0,0.2,0.1c0,0,0,0,0.1,0c-0.1-0.2-0.4-0.4-0.3-0.5c0.3-1.1,0.4-2.2,1-3.2
			c0.7-1.2,1-2.5,1.4-3.7c0.3-0.8,0.7-1.6,0.9-2.4c0.2-0.8,0.2-1.6,0.5-2.4c0.8-1.9,1.2-4,1.8-6c0.1-0.2,0.1-0.5,0.2-0.6
			c1.4-1.2,1.4-2.7,1.7-4.2c0.2-0.9,0.5-1.7,0.9-2.6c0.6-1.3,1.2-2.6,1.3-4c0-0.6,0.2-0.7,1-1.5c0.5,0.1,0.5,0.5,0.5,0.8
			c0,1.5,0,2.9,0.1,4.4c0.1,1.3,0.4,2.6,0.5,3.9c0.1,2,0.2,3.9,0.4,5.8c0,0.5,0.1,1,0.1,1.5c0.3,1.8,1,3.6,1,5.3
			c0,2.4,0.7,4.7,0.7,7C167.9,220.2,167.2,220.2,166.5,220.1z M173.2,217.1l-0.1,0.2l-0.1-0.2L173.2,217.1z M173.6,219.6
			c0.4,1.4,0.4,2.4,0.1,3.3c-0.7-0.1-0.5-0.6-0.5-0.9c0-0.3-0.2-0.7-0.2-1C173,220.6,173.3,220.3,173.6,219.6z M173.6,227.5
			c-0.1,0-0.1,0-0.2,0.1c0-0.1,0-0.1,0-0.2c0.1,0,0.1,0,0.2,0C173.6,227.4,173.6,227.5,173.6,227.5z M175.7,241.8
			c-0.1-0.1-0.1-0.1-0.2-0.2c0,0,0.1-0.1,0.2-0.1c0,0,0.1,0.1,0.1,0.1C175.7,241.7,175.7,241.7,175.7,241.8z M175.3,239.8
			c-0.5,0.1-0.7-0.3-0.8-0.6c-0.4-0.9-0.7-1.8-1.1-2.7c-0.1-0.1-0.1-0.3-0.1-0.4c0.1-0.5,0.5-0.9,0.4-1.3c0-0.3-0.6-0.6-0.7-1
			c-0.1-0.6,0-1.2,0.2-1.8c0.1-0.2,0.5-0.3,0.7-0.4c0.6,0.9,0.6,0.9,0.4,2.1c-0.1,0.5,0.2,0.8,0.6,1.1c0-0.1,0-0.3,0-0.4
			c0,0.1,0,0.2,0,0.4c0,0,0,0,0,0c-0.2,0.1-0.5,0.2-0.5,0.3c-0.1,0.2,0,0.5,0,0.8c0.2,0,0.4,0,0.7,0c0.2,0,0.3,0,0.6,0
			c0,0.3,0.1,0.5,0,0.8c-0.1,0.6-0.4,1.1,0,1.8C176.1,238.8,175.8,239.4,175.3,239.8z M181.4,217.3c0-0.1-0.1-0.1-0.1-0.2
			c0-0.1,0.1-0.1,0.1-0.1c0,0.1,0,0.1,0.1,0.2C181.5,217.3,181.4,217.3,181.4,217.3z"/>
		<path class="st0" d="M54.9,141.9c-1.9,0-3.9-0.1-5.8,0c-1,0-1.9,0-2.8-0.5c-0.2-0.1-0.7,0-0.8,0.1c-0.2,0.2-0.1,0.5,0,0.8
			c0.9,2.5,2.9,4.5,5,6.3c0.3,0.2,0.6,0.5,1,0.6c1.9,0.5,3.8,1.1,5.9,0.9c1.4-0.2,2.9-0.3,4.3-0.5c1.6-0.2,3.1-0.4,4.9-0.7
			c-0.1,0.5-0.1,1-0.2,1.5c-0.4,1.9-0.3,3.9-0.2,5.9c0,0.2,0.3,0.4,0.6,0.7c1.2-2.2,0.1-4.4,1.1-6.4c0.4,0.1,0.7,0.1,1.1,0.2
			c0.1-0.8,0.2-1.6,0.3-2.4c0.6,1.9,0.2,3.7,0.3,5.6h0c0.4,0.1,0.7-0.1,0.8-0.4c0.3-1.2,0.6-2.4,0.8-3.6c0.3-0.1,0.6-0.1,0.8-0.2v0
			c0,0,0,0,0-0.1c-0.2-0.4-0.5-0.8-0.7-1.2c0-0.1,0.3-0.2,0.5-0.5c0.1,0.6,0.1,1.1,0.2,1.6c0,0,0,0,0,0.1c0,0,0,0,0,0
			c-0.1,0.8-0.2,1.5-0.2,2.3c0,0.4,0.2,0.7,0.5,1.3c0.4-1,0.6-1.9,1.5-2.5c0.5,1.1-0.1,2.3,1,3.6c0-1.6,1.5-2.3,1.8-3.6
			c0.3-1.3,0.8-2.5,1.2-3.8c1.5-0.5,2.9-1,4.4-1.4c2.8-0.9,5.1-2.4,7.6-3.7c0.1-0.1,0.3-0.2,0.3-0.3c0.7-1.1,1.9-1.4,3-2
			c1-0.5,2-0.5,2.8-0.2c0.3,1.6,0.5,3.2,0.8,4.7c0,0.3,0.2,0.6,0.2,0.8c-0.4,1.9,0.2,3.7,0.1,5.6c-0.1,0.9,0.2,1.8,0.7,2.5
			c1.7-0.3,1.7-0.3,2.4-1.2c0.1-0.2,0.2-0.4,0.4-0.5c0.8-0.4,0.7-1,0.8-1.6c0.3-1.9,0-3.7,0.3-5.6c0-0.1,0.1-0.3,0.2-0.4
			c0.2,0.1,0.3,0.1,0.3,0.2c0.1,0.8,0,1.7,0.5,2.5c-0.4,1.3,0.1,2.5,0.4,3.7c0.1,0.2,0.3,0.4,0.6,0.7c0.4-0.5,0.7-0.8,1.1-1.4
			c0,0.4,0,0.7,0.1,0.8c0.3,0.9,0.9,1.4,1.9,1.2c0.5-0.1,1.1-0.3,1.5-0.6c0.8-0.5,1.5-1,2.3-1.6c0-0.3-0.1-0.6,0-0.8
			c0.5-1.2,0.4-2.3,0-3.4c-0.2-0.5-0.2-1.1,0.1-1.6c0.5-0.9,0.4-1.8-0.1-2.6c-0.6-1.1-0.6-2.3-0.4-3.5c0.4-2,0-4-0.7-5.9
			c-0.1-0.4-0.1-0.7,0.2-0.9c0.2-0.2,0.5-0.4,0.5-0.6c0.1-2.9-1-5.6-1.3-8.4c0-0.2-0.3-0.4-0.3-0.6c-0.2-0.6-0.3-1.2-0.4-1.8
			c0.9-0.8,0.1-1.6,0-2.3c-0.2-1-0.3-2-0.1-2.9c0.2-0.8-0.2-1.4-0.6-2.1c0.5-0.4,0.9-0.7,1.2-0.8c0-1.1,0-2,0-2.9
			c0-0.4,0-0.8-0.1-1.2c-0.5-1.3-0.6-2.6-0.6-3.9c0-2.1-0.2-4.2-0.3-6.2c-0.1-2.8-0.7-5.5-1.2-8.3c-0.1-0.5-0.4-0.9-0.4-1.4
			c-0.1-1.7-0.2-3.5-0.3-5.2c-0.2-1.7-0.5-3.3-0.7-5c-0.1-0.7-0.3-1.4-0.4-2.1c-0.4-2.8-0.8-5.7-1.2-8.5c-0.1-0.9-0.6-1.6-1.1-2.3
			c-0.2-0.3-0.6-0.5-1-0.6c-1-0.1-2.1-0.3-3.1-0.2c-0.7,0-1.2,0-1.8-0.2c-0.4-0.2-0.9-0.2-1.4-0.3c-1.1-0.3-2.1-0.5-3.2-0.8
			c-0.3-0.1-0.6-0.4-0.9-0.7c-0.5,0.4-1,0.7-1.2,0.8c0.1,0.9,0.2,1.6,0.4,2.6c-0.9-0.3-1.5-0.6-2.3-0.9c-0.6,0.3-1.2,0.6-1.5,0.7
			c-0.4,0.9-0.7,1.5-1,2.1c-0.2,0.3-0.5,0.5-0.6,0.9c-1.4,3.7-2.8,7.4-3.7,11.2c-0.7,2.7-1.3,5.3-2,8c-0.5,1.8-1,3.5-1.4,5.3
			c-0.6,2.4-1.1,4.8-1.6,7.2c-0.4,1.8-1.1,3.5-1,5.3c0,0.2-0.1,0.4-0.1,0.6c-1,2.6-1.1,5.3-1.7,8c-0.5,2.5-0.9,4.9-1.4,7.4
			c-0.6,3-1.1,5.9-1.7,8.9c-0.6,3.3-1.3,6.6-1.9,9.9c-1.1,0.3-2.1,0.6-3.1,0.9c-1.8,0.5-3.6,0.9-5.3,1.5
			C57.7,141.7,56.3,141.8,54.9,141.9z M109.2,134.2l0,0.2l-0.1,0L109.2,134.2z M106.7,102.4c0.1,0.1,0.1,0.2,0.2,0.3
			c-0.1,0-0.1,0.1-0.2,0.1c-0.1-0.1-0.1-0.2-0.2-0.3C106.6,102.5,106.7,102.4,106.7,102.4z M104.7,129.3c0.1,0,0.2,0,0.3,0
			c0,0.2,0.1,0.4,0.1,0.6c0,0.1-0.2,0.2-0.3,0.3c-0.1-0.1-0.2-0.2-0.2-0.3C104.5,129.7,104.6,129.5,104.7,129.3z M102.4,121.2l0,0.1
			l-0.1,0L102.4,121.2z M101.7,114.2c0.1,0.1,0.2,0.3,0.3,0.4c0,0,0,0.1-0.1,0.2c-0.1-0.1-0.2-0.3-0.3-0.4
			C101.7,114.3,101.7,114.2,101.7,114.2z M101.3,127.4c0,0,0.1,0,0.2,0c0,0.1,0.1,0.2,0.1,0.4c-0.1,0-0.2,0-0.3,0
			C101.2,127.7,101.3,127.5,101.3,127.4z M100.9,141.1c0.1-0.4,0.3-0.8,0.5-1.3c0.2,0.8,0.5,1.4,0.6,2.1c0,0.2-0.3,0.4-0.5,0.6
			c-0.2-0.2-0.5-0.3-0.6-0.5C100.7,141.6,100.8,141.3,100.9,141.1z M100.4,121.2c-0.2-1.3-0.4-2.7-0.7-4
			C99.9,118.6,100.9,119.8,100.4,121.2z M80.1,133c0.6-1,0.8-2.1,1.1-3.2c0.4-1.6,1-3.2,1.7-4.7c0.9-2,1.4-4,1.9-6
			c0.3-1.1,0.5-2.3,0.6-3.5c0.1-1.2,0.8-2.2,0.8-3.4c0-2.1,0.8-4.1,1.2-6.2c0.3-1.9,0.6-3.7,0.9-5.6c0.3-1.5,0.7-3,1.1-4.5
			c0.7-3,1.4-6,2-9c0.2-0.9-0.1-1.9,0.6-2.8c0.7,0.1,0.6,0.5,0.7,0.9c0.2,2.3,0.3,4.6,0.5,6.9c0.2,2.1,0.5,4.1,0.8,6.2
			c0.1,0.5,0.2,1,0.2,1.4c0.1,2.2,0.2,4.5,0.4,6.7c0.2,3.1,0.4,6.2,0.6,9.4c0.2,3.2,0.5,6.4,0.8,9.6c0.1,0.9,0.1,1.8,0.2,2.8
			c-1.2,0.1-2.3,0.1-3.4,0.2c-1.7,0.1-3.3,0.7-4.7,1.6c-1.1,0.7-2.2,1.4-3.3,2.2c-1.5,1.1-3.2,1.9-5.3,2.9
			C79.9,134.1,79.9,133.5,80.1,133z M75,130.6c0.1,0,0.1,0,0.2,0c0,0,0,0.1,0,0.2c-0.1,0-0.2,0-0.2,0C75,130.7,75,130.6,75,130.6z
			 M75.1,150.9c0,0.1,0.1,0.1,0.1,0.2c-0.1,0.1-0.1,0.2-0.2,0.3c0-0.1-0.1-0.1-0.1-0.2C75,151.1,75,151,75.1,150.9z M74.8,148.8
			c0,0.2-0.1,0.4-0.2,1c-0.1-0.6-0.1-0.8-0.1-1C74.6,148.8,74.7,148.8,74.8,148.8z M68,148.7c0,0,0.1,0.1,0.1,0.2
			c0,0.1-0.1,0.1-0.1,0.2c-0.1-0.1-0.1-0.1-0.1-0.2C67.8,148.8,67.9,148.8,68,148.7z"/>
		<path class="st0" d="M251.2,173c0.2-0.4,0.3-0.9,0.5-1.4c0.6-1.9,1.2-3.9,1.8-5.8c0.5-1.5,1.9-2.6,2-4.1c1.9-3.4,2.8-7.1,4.2-10.7
			c0.4-1,1-1.9,1.3-2.9c0.6-1.7,1-3.5,1.5-5.3c0.9-3,1.5-6.1,3.3-8.8c-0.2-0.7-0.3-1.3-0.5-1.9c-0.3-1.2-1-1.7-2.3-1.8
			c-0.7,0-1.5,0-2.2-0.1c-1.3-0.2-2.4-0.1-3.5,0.4c-1.4,0.6-2.8,1-4.4,1.2c-1.4,0.1-2.2,0.6-2.2,2c0,0.5-0.2,1.1-0.5,1.6
			c-1.1,1.8-1.1,4.1-2.5,5.8c-0.1,0.1-0.2,0.3-0.1,0.4c0.4,1-0.4,1.8-0.7,2.7c-0.5,1.6-1.1,3.2-1.7,4.8c-1.1,2.8-2.2,5.7-3.3,8.5
			c-0.1,0.3-0.1,0.8-0.9,1c-0.6-1.5-1.5-2.9-2.1-4.4c-0.7-1.9-1.6-3.8-2.7-5.6c-0.7-1-1.5-2.1-1.7-3.2c-0.3-1.8-1.1-3.5-2-5.1
			c-0.6-1.2-1.6-1.8-3-1.7c-1.5,0-2.9-0.2-4-0.9c-0.9,0.2-1.6,0.6-2.4,0.6c-2,0-3.8,0.7-5.6,1.1c-0.7,0.1-1,0.8-0.7,1.3
			c0.1,0.2,0.3,0.3,0.4,0.5c0.5,0.9,1.2,1.8,1.5,2.7c0.5,1.5,1.2,2.9,2.1,4.2c1,1.6,2.1,3.1,2.5,5c0.1,0.5,0.5,0.9,0.7,1.3
			c2.4,3.8,4.6,7.7,6.4,11.7c1.8,3.9,2.9,8,4.3,12c0.2,0.7,0.3,1.4-0.1,2c-1.2,2.1-1.5,4.5-2.6,6.7c-0.9,1.8-1.4,3.8-1.9,5.8
			c-0.2,0.9-0.6,1.5-1.3,2.2c-0.8,0.7-1.2,1.6-1.2,2.6c0,1-0.3,1.9-0.6,2.9c-0.6,1.8-1.4,3.6-2.1,5.3c-0.5,1.2-0.6,2.2-0.4,3.2
			c0.6-0.4,0.8-1,0.8-1.5c0.1-0.6,0.4-1.1,0.8-1.5c0.2-0.2,0.4-0.4,0.7-0.1c-0.8,2-1.6,3.9-1.7,6c0,0.3-0.1,0.7-0.3,1
			c-0.8,1.4-1.7,2.8-1.8,4.5c-1,1.8-0.7,4-1.9,5.8c-0.3,2.4-1.1,4.8-1,7.2c0,0.5,0,1-0.1,1.5c-0.6,2.5-0.6,5-0.8,7.4
			c1.3,0.1,1.6-0.6,1.8-1.4c0.2-0.8,0.2-1.6,0.3-2.5c0.5,0.3,0.8,0.5,1.2,0.7c0.7-0.6,0.7-1.3,0.8-2c0-0.3-0.1-0.8,0.1-1
			c0.6-0.5,0.3-1.2,0.5-1.7c0.2-0.7,0.4-1.3,0.7-2c0.2-0.5,0.5-0.9,0.7-1.4c0,1.7-0.4,3.2-0.7,4.8c-0.1,0.7-0.1,1.4-0.1,2.1
			c0,0.2,0.3,0.5,0.4,0.7c0.9-0.1,0.9-0.6,1.1-1c0.1-0.4,0.5-0.8,0.8-1.2c0.9,0.5,1,0.5,1.3,0.2c1.5-1.5,2.9-3.2,3.7-5.1
			c0.3-0.8,0.7-1.5,1.3-2.2c0.7-1,0.7-2.3,1.7-3.2c0.1-0.1,0-0.3-0.1-0.4c-0.2-0.3-0.2-0.6,0.1-0.8c0.8-0.5,0.8-1.4,1-2.1
			c0.3-0.8,0.6-1.6,0.5-2.4c-0.1-0.9,0.8-1.4,0.9-2.3c0-0.9,0.5-1.8,0.7-2.7c0.2-1,0.8-1.8,1.2-2.7c0.6-1.3,0.8-2.8,0.9-4.2
			c0.2-1.7,1.2-2.9,2.2-4.5c0.5,1.2,0.8,2.1,1.2,3c1.1,2.9,2.3,5.8,3.4,8.7c0.6,1.5,1.5,3,2,4.5c0.9,2.5,1.3,5.2,2.5,7.6
			c0.1,0.3,0.1,0.7,0.1,1c0.1,0.4,0,0.9,0.3,1.2c0.9,0.9,1.2,2,2,3c0.4,0.4,0.8,0.9,1.3,1.2c0.5,0.3,1.2,0.3,1.5-0.2
			c0.6-0.9,1.4-1,2.5-0.8c0.4,0.1,0.8-0.1,1.2-0.1c1.3,0.1,2.5-0.6,3.7-0.8c1.3-1.4,1.7-2.8,1-4.3c-0.7-1.6-1.5-3.2-2.1-4.8
			c-0.6-1.4-1.2-2.7-1.5-4.1c-0.4-1.5-0.9-3-1.6-4.4c-0.1-0.3-0.4-0.6-0.5-1c-0.2-1.8-1.1-3.3-2-4.9c-2.4-4.3-3.8-8.9-5.4-13.4
			c-1-2.9-1.8-5.8-3.3-8.5c-0.6-1-1-2.3-0.4-3.4C249.4,177.9,250.2,175.4,251.2,173z M221.8,233.1l0-0.1l0.1,0L221.8,233.1z
			 M222.3,232l0.1-0.1l0.1,0.2L222.3,232z M233.5,200.2c0.1-0.1,0.3-0.1,0.4,0c0.1,0,0.3,0.2,0.3,0.3c-0.1,0.4-0.3,0.7-0.6,1.5
			C232.9,201.1,233.1,200.6,233.5,200.2z M232.3,203.3c1,0.6,0.3,1.1,0.2,1.9C231.7,204.3,232.4,203.9,232.3,203.3z M230,212.8
			c-0.1-0.1-0.2-0.2-0.2-0.3c0,0,0.1-0.1,0.1-0.1c0.1,0.1,0.2,0.1,0.3,0.2C230.1,212.7,230,212.8,230,212.8z M230.6,209.3l-0.1-0.2
			h0.1L230.6,209.3z M231,218c0,0,0.1-0.1,0.1-0.1c0,0.1,0.1,0.1,0.1,0.2C231.1,218.2,231.1,218.2,231,218z M231.5,206.5
			c0.1-0.1,0.2-0.1,0.2-0.2c0.1,0.1,0.2,0.2,0.3,0.3c-0.1,0-0.1,0.1-0.2,0.1C231.7,206.6,231.6,206.5,231.5,206.5z M232,215.5
			l0.1-0.2l0.1,0.2L232,215.5z M232.5,214.2c-0.5-1.4,0.4-2.3,1-3.3C233.2,211.9,232.9,213,232.5,214.2z M233.5,209.6
			c0-0.1-0.1-0.1-0.1-0.2c0.1,0,0.2-0.1,0.3-0.1c0,0,0.1,0.1,0.1,0.1C233.7,209.5,233.6,209.5,233.5,209.6z M234.1,208.9
			c-0.4-0.7-0.4-0.7,0.6-1.2C234.5,208.1,234.3,208.5,234.1,208.9z M234.8,206.6c-0.1,0-0.1,0-0.2-0.1c0-0.1,0-0.1,0.1-0.1
			c0.1,0,0.2,0,0.2,0.1C234.9,206.5,234.9,206.5,234.8,206.6z M234.7,196.6c-0.1,0-0.3,0-0.4,0c0-0.4,0-0.8,0.1-1.1
			c0-0.1,0.3-0.2,0.4-0.1c0.1,0,0.3,0.2,0.3,0.2C235,195.9,234.9,196.2,234.7,196.6z M234.8,194.1c0.2-0.5,0.3-0.8,0.5-1
			c0.1-0.1,0.3-0.1,0.4-0.1c0.1,0,0.2,0.2,0.2,0.3C235.8,193.7,235.6,194,234.8,194.1z M235.9,201.1c0.2-0.3,0.4-0.5,0.6-0.9
			C237.1,200.9,236.3,201,235.9,201.1z M238.2,194.7c0,0.1-0.2,0.1-0.4,0.2c0-0.2-0.1-0.4,0-0.5c0-0.1,0.2-0.1,0.4-0.2
			C238.3,194.4,238.3,194.6,238.2,194.7z M238.6,193.6l0-0.1l0.2,0.1L238.6,193.6z M238.8,192.8c0-0.1-0.1-0.2-0.1-0.3
			c0,0,0.1-0.1,0.1-0.1c0.1,0.1,0.1,0.2,0.2,0.3C239,192.6,238.9,192.7,238.8,192.8z M259.8,227.7c0.1-0.3,0.9-0.2,0.9,0.1
			c0.1,0.2-0.1,0.5-0.2,0.7c0,0-0.1,0.1-0.2,0.1c-0.1-0.1-0.3-0.1-0.3-0.2C259.9,228.1,259.7,227.9,259.8,227.7z"/>
		<path class="st0" d="M262.3,40.2c0-1,0-1.9,0.1-2.9c1.3-0.3,2.4-0.6,3.6-0.8c1.6-0.3,3.1-0.5,4.4-1.5c0.8-0.6,2.1-0.8,3.2-0.5
			c0.3,0.1,0.6,0.1,0.9,0c3.1-0.9,6.4-0.8,9.5-1.4c0.9-0.2,1.9-0.3,2.9-0.3c2.1-0.1,4.3-0.2,6.5-0.3c0.3-0.8,0.5-1.4,0.7-1.9
			c-0.5-1-1.3-1.4-2.3-1.6c-0.4-0.1-1-0.3-1.2-0.5c-0.5-0.8-1.6-1.3-2.1-2.1c-0.7-1.1-2.1-1.7-3.2-2.4c-0.5-0.3-1.2-0.6-1.8-0.5
			c-2.1,0.3-4.4-0.2-6.4,0.8c-0.5,0.2-1.1,0.2-1.6,0.3c-0.8,0.1-1.6,0.2-2.4,0.3c-2.1,0.3-4.1,0.6-6.2,0.9c-2.1,0.3-4.1,0.7-6.1,1.1
			c-0.8,0.2-1.5,0.6-2.3,0.3c-2.2,0.4-4.5,0.4-6.6,1.2c-1,0.4-2.1,1.1-3.4,0.4c-1.1,1.1-2.4,1.8-4.1,1.9c-1.3,0.1-2.2,0.8-2.5,1.9
			c-0.4,1.1-0.9,2.1-1.4,3.1c0.5,0.7,1,1.4,1.5,2.1c0.2,0.2,0.4,0.4,0.6,0.6c1.7,1,3.4,2.1,5.1,3.1c0.1,4.5,0.1,9.1,0.2,13.6
			c0.1,4.5,0.2,9.1,0.2,13.6c0.1,4.5-0.4,9-0.1,13.4c0.7,0.4,0.6-0.8,1.2-0.3c0,0.1,0.1,0.3,0.1,0.4c-0.2,2.2-0.6,4.4-0.1,6.6
			c0,0.2,0,0.4-0.1,0.6c-0.5,0.6-0.3,1.2-0.3,1.8c0,1.4,0.1,2.9-1,4.2c-0.3,0.4-0.4,1.1-0.4,1.6c-0.1,3.8-0.1,7.5-0.1,11.3
			c0,0.6,0,1.2,0,1.8c-1,1-2.4,0.9-3.7,1.2c-0.7,1.4-1.4,2.8-2.2,4.2c1.8,2.2,2.8,3.1,4.5,4c0.9,0.5,1.7,1,2.6,1.5
			c0.2,0.1,0.4,0.2,0.7,0.2c1.5,0,3.1,0.2,4.6,0c1.8-0.1,3.4-0.8,5.1-1.2c1.2-0.3,2.5-0.6,3.7-0.9c1.9-0.4,3.8-0.7,5.6-1.4
			c1-0.4,2.1-0.6,3.2-0.8c1.7-0.3,3.5-0.5,5.3-0.7c2.3-0.3,4.6-0.6,6.6-1.8c1.1-0.6,2.4-0.8,3.7-0.6c1,0.2,2,0.5,2.9-0.4
			c0.1-0.1,0.6,0,0.9,0c0.4,0,0.7,0,1.3,0c-0.6-1.4-1.2-2.5-2.6-3.3c-0.9-0.5-1.6-1.4-2.1-2.3c-0.6-1.1-1.5-2.1-2.2-2.9
			c-0.9-0.2-1.7-0.3-2.4-0.5c-1.4-0.3-2.8-0.8-4.2-1c-2-0.3-4-0.2-5.2,1.4c-0.6,0.7-1.1,1-2,1.1c-0.9,0.1-1.5-0.5-2.3-0.9
			c-0.4,0.5-0.7,1-1,1.3c-0.4,0.3-0.9,0.5-1.3,0.1c-0.3-0.4-0.7-0.5-1.2-0.4c-0.6,0-0.8,0.4-1,0.7c-0.2,0.3-0.7,0.6-1.1,0.8
			c-0.8,0.3-1.7,0.5-2.5,0.7c-0.3,0.1-0.6,0-1.2-0.1c1.1-1.5,0.7-3,0.6-4.5c0-0.3,0-0.5,0.1-0.8c0.8-1.9,0.8-3.8,0.8-5.7
			c0-1,0-1.9,0-2.9c0-1,0.3-2-0.1-2.9c-0.5-1,0.3-1.9,0.1-2.8c-0.1-0.7-0.3-1.3-0.5-2c0.7-0.6,0.1-1.2,0.1-1.8
			c0-0.7,0.4-1.3,0.2-2.1c-0.2-0.5,0.2-1.2,0.3-1.8c0-0.2,0.1-0.4,0.1-0.6c-0.1-0.5-0.3-1.1-0.3-1.6c0.1-0.5,0.5-1,0.6-1.5
			c0.1-1.5,0.1-3.1,0-4.6c0-0.7-0.2-1.4,0-2.1c0.1-0.6,0.2-1.3,0.1-1.9c-0.1-0.6,0-1.2,0.1-1.8c0.1-0.7,0.2-1.5,0.3-2.4
			c0.3-0.5,1-0.6,1.7-0.7c3.3-0.7,6.6-1.5,9.7-2.6c2.5-0.8,4.9-1.8,7.1-3.2c0.2-0.7,0.4-1.3,0.6-2c-1.4-0.6-2.9-1.2-3.1-2.7
			c0-0.2-0.3-0.3-0.5-0.4c-2.2-2.1-4.8-2.5-7.9-1.7c-0.3,0.1-0.6,0.3-0.9,0.3c-1.7-0.1-3.3,0.4-4.9,0.9c-0.3,0.1-0.7,0.1-1.3,0.2
			c-0.1-0.8-0.3-1.5-0.4-2.2c-0.1-2.1,0.3-4.2,0-6.3c0-0.2,0.1-0.4,0.1-0.6C262.2,42.3,262.2,41.2,262.3,40.2z M268.1,28.7
			C268.1,28.6,268.1,28.6,268.1,28.7c0.1-0.2,0-0.4,0.1-0.4c0.5-0.2,1-0.4,1.6-0.5c1-0.2,2-0.4,3-0.5c0.3,0,0.6,0,1.2,0.1
			c-0.5,0.3-0.8,0.7-1.1,0.7C271.2,28,269.7,28.6,268.1,28.7C268.1,28.7,268.1,28.7,268.1,28.7c0,0-0.1,0-0.1,0
			c-0.1,0-0.1,0-0.2-0.1C267.9,28.6,268,28.6,268.1,28.7z M265.9,35.9l-0.2,0.1l0-0.1L265.9,35.9z M256.9,86.1
			c0.1,0.1,0.1,0.1,0.1,0.1c0,0.1-0.1,0.2-0.2,0.3c0,0-0.1-0.1-0.1-0.1C256.8,86.3,256.9,86.2,256.9,86.1z M257,89.8v0.9h-0.2v-0.9
			C256.9,89.8,257,89.8,257,89.8z M256.4,98.5h0.2v0.8c-0.1,0-0.1,0-0.2,0V98.5z M254,87.5c0,0.1,0,0.3,0,0.4
			c-0.1,0-0.1,0.1-0.2,0.1c0-0.1-0.1-0.2-0.1-0.3C253.8,87.6,253.9,87.5,254,87.5z M253.6,89.2c0.9,0.5,0.9,0.5,0.2,1.7
			C253.4,90.1,253.4,90.1,253.6,89.2z M253.2,105.9c-0.1,0-0.2,0-0.2,0v-0.8c0.1,0,0.2,0,0.3,0C253.2,105.4,253.2,105.6,253.2,105.9
			z M254.2,95c-0.6,1.6-0.4,3.2-0.5,4.8c0,0.4-0.1,0.8-0.1,1.2c0-2.7-0.7-5.5,0.2-8.6C254.2,93.4,254.4,94.2,254.2,95z M256,107.8
			l-0.1-0.2l0.2,0L256,107.8z M256.3,101.8c0-0.1,0.1-0.1,0.1-0.2c0.1,0,0.1,0,0.2,0c0,0,0,0.1,0,0.2
			C256.5,101.8,256.4,101.8,256.3,101.8z M256.9,96.4c-0.2-0.3-0.3-0.5-0.4-0.6c-0.1-0.2-0.1-0.4-0.1-0.5c0,0,0.1-0.1,0.2-0.1
			c0.4,0.1,0.5,0.3,0.5,0.6C257,95.9,257,96.1,256.9,96.4z M256.9,94.3c-0.1-0.1-0.2-0.2-0.2-0.3c0-0.1,0.1-0.2,0.2-0.3
			c0.1,0.1,0.2,0.2,0.2,0.3C257.1,94.1,257,94.2,256.9,94.3z M265.3,109.1c0.3,0,0.6,0.1,1,0.1c0.1-0.3,0-0.6,0.6-0.7
			c1.4-0.1,2.7-0.4,3.9-0.9c0,0-0.1,0-0.1,0c-0.1,0-0.2,0-0.3,0c0,0,0.1-0.1,0.1-0.1c0.1,0,0.1,0.1,0.2,0.1c0.1,0,0.1,0,0.2,0
			c0,0-0.1,0-0.1,0c0,0,0,0,0,0c1,0.1,1.9-0.1,2.8-0.3c1.3-0.3,2.5-0.4,4.2-0.5c-0.6,0.4-0.8,0.7-1.1,0.7c-2.6,0.4-5.1,1.2-7.8,1.4
			c-0.9,0.1-1.9,0.2-2.8,0.2C266,109.2,265.7,109.2,265.3,109.1C265.3,109.2,265.3,109.1,265.3,109.1z M260.5,87.7
			c-0.1,0.1-0.1,0.2-0.2,0.3c-0.1-0.1-0.3-0.1-0.4-0.2c0.1-0.1,0.1-0.2,0.2-0.3C260.3,87.5,260.4,87.6,260.5,87.7z"/>
		<path class="st0" d="M211.3,160.9c0.1-0.2-0.1-0.6-0.2-0.8c-0.6-1-1.2-1.9-2-2.9c-0.4-0.5-1.1-0.8-1.9-0.8c-0.7,0-1.5,0.1-2.2-0.1
			c-1.3-0.2-2.4,0.1-3.4,0.8c-0.6,0.4-1.3,0.8-2.1,1.1c-0.9,0.4-2.1,1.3-2.5,2.2c-0.3,0.7-0.7,1.3-0.8,2c-0.3,1.6-0.4,3.3-0.6,4.9
			c-0.2,2.1-0.3,4.1-0.3,6.2c0,0.3-0.1,0.7-0.2,1c-0.1,1-0.3,1.9-0.4,2.9c-0.3,3.5,0,7-0.3,10.4c-0.1,0.6-0.1,1.1,0,1.7
			c0.5,1.7-0.2,3.4,0,5.2c0.2,1.5-0.2,3-0.3,4.6c-0.1,3.7,0.2,7.4-0.1,11.1c-0.3,2.8,0.1,5.7-0.2,8.5c-0.3,2.4-0.2,4.7-0.3,7.1
			c-0.1,2,0,4,0.2,6c0.1,0.5,0.3,1,0.2,1.4c-0.3,1.1,0.2,2.2,0.3,3.3c0.1,1.7,1.6,2.9,2.3,4.4c0,0.1,0,0.1,0,0.2
			c0,0.1,0.1,0.1,0.3,0.2c0.5-0.1,1-0.2,1.5-0.4c0.3-0.6,0.6-1.2,0.9-1.7c0.9-0.6,2.5-0.1,3-1.4c1.8,0.1,1.7,0.1,2.6-0.4
			c0.8-0.4,1-1,1.2-1.7c0.1-0.3,0.1-0.6,0.2-0.8c0.7-0.5,0.6-1.3,0.9-1.9c0.5-1.1-0.3-2.3,0.4-3.4c-0.2-0.8-0.1-1.5,0.1-2.3
			c0.2-0.7,0.1-1.5,0.2-2.3c0.1-1.5,0-3.1,0.3-4.6c0.2-0.8-0.5-1.9,0.7-2.6c-0.4-1,0.4-1.8,0.5-2.8c0.3-3-0.5-6,0.4-8.9
			c0-0.1,0-0.1,0-0.2c-0.1-1.3-0.4-2.7,0.2-4c0.2-0.4,0.1-0.8,0-1.2c-0.4-2.1-0.3-4.1-0.1-6.2c0.1-1.2,0.5-2.5,0.3-3.7
			c-0.1-1,0.2-1.9,0.2-2.9c-0.1-1,0-2.1,0.1-3.1c0.1-1.2,0.4-2.3,0.5-3.5c0.1-2.6,0.2-5.3,0.3-7.9c0-0.7,0.1-1.4,0.1-2.1
			c0-1.7-0.1-3.5,0-5.2C211.6,164.4,210.7,162.7,211.3,160.9z"/>
		<path class="st0" d="M122.4,131.5c-0.1,3.5,0.6,7,1,10.4c0.1,1.2,0.3,2.5,0.6,3.7c0.1,0.5,0.2,1,1.1,1c0-0.6,0-1.1,0.1-1.6
			c0.1-0.3,0.2-0.6,0.3-0.8c0-0.2,0.1-0.4,0.2-0.6c0,0,0,0,0-0.1c-0.1-0.5-0.1-1-0.2-1.7c0.8,0.7,0.3,1.2,0.2,1.7c0,0,0,0.1,0,0.1
			c-0.1,0.2-0.2,0.3-0.3,0.5c-0.2,0.9,0.5,1.4,1.3,2c0.9-0.3,0.6-0.8,0.6-1.3c0-0.5,0.1-1,0.1-1.5c0-0.5,0.1-1,0.1-1.5
			c0-0.6-0.1-1.1-0.1-1.7c0-0.5,0.1-1,0.2-1.5c0.1-0.4-0.3-1,0.2-1.4c0.2,0.1,0.4,0.2,0.4,0.3c-0.1,0.6-0.3,1.2,0,1.8
			c0.2,0.3,0,0.8-0.1,1.2c-0.1,0.5-0.4,1-0.3,1.4c0.1,1.4,0.4,2.7,0.6,4c0.9,0.3,0.9-0.5,1.4-0.7c0,0,0,0-0.1,0c0,0,0,0,0,0
			c-0.1-0.2-0.1-0.4-0.2-0.6c0.3,0,0.7-0.1,0.8,0c0.3,0.2,0,0.5-0.2,0.6c-0.1,0-0.2,0-0.4,0c0,0,0,0,0,0l0,0
			c0.5,0.5,1.1,0.6,1.6,0.1c0.7-0.6,1.4-1.2,1.9-1.9c1-1.4,0.6-3.1,1.7-4.5c0.2-0.3,0.4-0.7,0.3-1c-0.1-2.1,0.6-4.3-0.1-6.4
			c-0.3-0.8-0.2-1.5,0.2-2.2c0.4-0.8,0.4-1.6,0.4-2.4c-0.1-1.4-0.3-2.9,0-4.3c0.2-1.1,0.2-2,0-3.1c-0.1-0.5,0-1,0.1-1.4
			c0.1-1.3,0.6-2.5,0.5-3.9c-0.1-1.3,0.4-2.6-0.1-3.9c0,0,0-0.1,0.1-0.2c0.8-0.9,0.5-2,0.5-3c-0.1-1-0.1-2.1-0.1-3.1
			c0.1-1.7,0.2-3.3,0.3-5c0.1-2.6,0.2-5.1,0.3-7.7c0-1.2,0.2-2.4,0-3.5c-0.1-0.6,0-1.2,0-1.9c0.1-0.9,0.2-1.8,0.2-2.7
			c0-0.9-0.1-1.8,0-2.7c0-1.3,0.2-2.5-0.4-3.7c-0.1-0.2-0.1-0.4-0.1-0.6c0.1-1.2,0.2-2.4,0.5-3.5c0.4-1.4,0.1-2.7-0.5-4.1
			c-0.6-1.3-1.8-2.2-3.4-2.2c-2,0-4,0-6.1,0c-0.9,0-3.1,1.1-3.4,1.8c-0.5,1.2-1.8,2.2-1,3.7c-0.1,3.1-0.3,6.1-0.4,9.2
			c-0.1,2.6-0.1,5.3-0.1,7.9c0,0.6,0.1,1.3,0,1.9c-0.5,3.4-0.2,6.8-0.3,10.2c-0.1,3.5-0.1,7.1-0.2,10.6c0,1.9-0.2,3.9-0.1,5.8
			c0,3.5,0.2,7,0.3,10.4C122.5,129.4,122.4,130.4,122.4,131.5z M127.7,135c0,0.1,0.1,0.2,0.1,0.3c0,0-0.1,0-0.1,0.1
			c0-0.1-0.1-0.2-0.1-0.3C127.6,135.1,127.7,135.1,127.7,135z M125.6,140.1c0,0,0.1,0,0.1,0c0,0,0,0.1,0.1,0.1c-0.1,0-0.2,0-0.2,0.1
			C125.6,140.2,125.6,140.1,125.6,140.1z"/>
		<path class="st0" d="M196.7,151.4c2.1,0.5,4,0.2,5.7-0.7c0.8,0.2,1.5,0.4,2.3,0.5c0.6-0.4,1.1-0.7,1.4-1c0.8-0.7,1.8-1.4,2.4-2.3
			c1.1-1.5,1.1-3.3,0.7-5c-0.2-0.9-0.8-1.9-2-2.2c-2-0.6-4.1-0.9-6.1-0.1c-1.2,0.5-2.5,0.6-3.8,0.7c-0.4,0-0.8,0.3-1.3,0.4
			c0.9,2.5-0.2,4.7-0.6,7C195.8,149.7,196.3,150.5,196.7,151.4z"/>
		<path class="st0" d="M125,60.5c1.3,0.2,2.5,0.4,3.8,0.3c0.9-0.1,1.8,0.3,2.6,0.2c0.9-0.2,1.6-0.8,2.5-1.1c1.4-0.4,2-1.1,2.1-2.3
			c0-0.2,0.1-0.4,0.1-0.6c0.9-1.7-0.1-3.3-0.8-4.8c-0.3-0.7-1-1-2-0.9c-0.7,0.1-1.5,0.2-2.2,0.2c-2-0.1-4.2,0.6-6-0.7
			c-0.9,0.4-1.6,0.7-2.4,1.1c-0.1,0.5-0.1,1-0.2,1.4c-0.4,2.1,0.2,4.1,0.9,6.1C123.8,60,124.2,60.4,125,60.5z"/>
		<path class="st0" d="M15.5,138c-0.1,0-0.3-0.1-0.4,0c-0.1,0-0.1,0.2-0.1,0.3c0.1,0,0.2-0.1,0.3-0.1
			C15.4,138.1,15.4,138.1,15.5,138z"/>
		<path class="st0" d="M69.4,153.8c0,0,0,0.1,0,0.1C69.4,153.9,69.4,153.8,69.4,153.8C69.4,153.8,69.4,153.8,69.4,153.8L69.4,153.8
			L69.4,153.8C69.4,153.8,69.4,153.8,69.4,153.8z"/>
		<path class="st0" d="M69.4,154.1c0-0.1,0-0.1,0-0.2c0,0.1-0.1,0.1-0.1,0.2C69.3,154.1,69.4,154.1,69.4,154.1z"/>
		<path class="st0" d="M16.4,140.4c0-0.2,0-0.5,0-0.7C16.1,139.9,16.2,140.2,16.4,140.4z"/>
		<path class="st0" d="M77.7,48.6c0,0,0.1,0,0.1,0c0.3,0,0.6-0.1,0.9-0.1c1.3-0.2,2-0.4,2.8-0.6c0.6-0.2,1.3-0.3,2.4-0.6
			c0.1,0,0.3,0,0.4-0.1c0.5-0.1,1.1-0.2,1.8-0.7c0.2-0.1,0.3-0.3,0.3-0.6c0-0.2,0-0.3,0-0.5c0.1-0.4,0.1-1-0.1-1.5
			c-0.1-0.3-0.4-0.5-0.7-0.4c-0.2,0-0.6,0.1-1.1,0.3c-1.2,0.3-3.2,0.8-4.2,0.9c0,0,0-0.1,0-0.1c0.4-2.7,1-6.3,1.5-9.1
			c0-0.2,0.1-0.5,0.1-0.7c0.1-0.6,0.2-1.3,0.3-1.9c0-0.3,0.3-1.2,0-1.5c-0.3-0.3-1,0-1.3,0c-0.1,0-0.2,0-0.3,0
			c-0.3,0-0.5,0.1-0.7,0.2c-0.1,0-0.5,0.1-0.6,0.2c-0.3,0.4-0.8,1.8-0.9,2.6c-0.1,0.7-0.4,2.3-0.5,3c-0.1,0.5-0.2,0.9-0.3,1.4
			c-0.3,1.2-0.5,2.3-0.6,3.5l-0.1,0.8c-0.1,1.3-0.6,4.7-0.4,5C76.7,48.4,77.2,48.6,77.7,48.6z"/>
		<path class="st0" d="M88.7,46.1c0,0,0.1,0,0.1,0c0.3-0.1,0.7-0.1,1.1-0.2c0.4-0.1,0.8-0.1,1.1-0.2c0.2,0,0.4-0.2,0.5-0.3l0.5-0.8
			c0.8-1.3,1.4-2.3,1.8-2.8c0.2,0,3.9-1.1,4.7-1.1l0.8-0.1c0.1,0,0,0.2,0.1,0.5c0.1,0.8,0.3,2,0.2,2.9c0,0.2,0.5,0.2,0.7,0.1
			l2.1-0.3c0.2,0,0.4-0.2,0.5-0.4c0.2-0.4-0.3-2.9-0.3-3.1c-0.5-2.3-0.9-4.2-1.2-6.2c-0.1-1-0.3-1.9-0.5-2.8l-0.1-0.5
			c-0.1-0.4-0.7-3.2-1.3-3.2c-0.3,0-0.7,0.1-1,0.2c-0.2,0-0.3,0.1-0.4,0.2l-0.1,0.1c-0.1,0.1-0.2,0.2-0.3,0.3
			c-0.1,0.2-0.2,0.4-0.3,0.5c-0.1,0.3-0.3,0.6-0.5,0.9l-0.2,0.3c-1.1,2-2.2,4-3.4,5.9c-0.7,1.1-1.3,2.4-2.1,3.7c0,0,0,0,0,0
			c-0.6,0.1-1.1,0.2-1.2,0.2c-1.1,0.2-1.3,0.1-1.2,1.1c0,0.6,0.4,1.1,1,1.3c-0.5,0.9-1,1.8-1.6,2.7c-0.1,0.2-0.2,0.8-0.1,1
			C88.2,46.3,88.5,46.1,88.7,46.1z M96.1,36.9c0.1-0.1,0.2-0.3,0.3-0.4c0.3-0.4,0.9-1.4,1.5-2.4c0,0.5,0.1,0.9,0.3,1.3
			c0.1,0.5,0.6,2.2,0.6,2.8c-0.5,0.1-1,0.2-1.5,0.3c-0.9,0.1-1.9,0.2-2.3,0.2C95,38.6,95.9,37.2,96.1,36.9z"/>
		<path class="st0" d="M196.1,131.7c0.3-0.1,0.8-0.1,1.2-0.2c0.1-0.9,0.2-1.7,0.3-2.5c0-0.2,0.1-0.5,0.2-0.6
			c0.7-0.3,0.2-0.9,0.4-1.3c0.2-0.4,0.3-0.9,0.3-1.4c0-2.7,0.4-5.4,0.5-8c0.1-3.1,1-6.2,0.6-9.3c0-0.1,0.1-0.3,0.1-0.4
			c0.3-1.3-0.2-2.7,0.4-3.9c-0.3-1.2,0-2.3,0-3.5c0-1.2,0.1-2.4,0.3-3.6c0.1-0.5,0-1-0.1-1.4c-0.1-1.6-0.2-3.2-0.3-4.8
			c-0.1-1.2,0-2.5-0.1-3.7c-0.1-1.3,0-2.6,0.3-3.9c0-0.1,0.1-0.3,0-0.4c-0.2-1.2,0-2.3,0.2-3.5c0.1-0.5,0.3-1.2,0.1-1.6
			c-0.4-1.1-0.1-2.1-0.1-3.1c0-0.5,0.1-1,0-1.5c-0.1-0.9-0.9-1.9,0.3-2.7c0.2-0.1,0.1-0.5,0-0.8c-0.3-1.9-0.5-3.8-0.4-5.8
			c0-1.1,0.1-2.2,0.4-3.3c0.1-0.4,0.2-0.8,0.1-1.2c-0.6-1.9-0.6-3.8,0.1-5.7c0.1-0.2,0.1-0.4,0.1-0.6c0-1.3,0-2.6,0-4
			c0-0.7,0.1-1.4,0.2-2.1c0-0.4,0.2-0.8,0.2-1.2c-0.2-1.3-0.1-2.6-0.2-3.9c-0.1-1.2-0.8-2.1-1.6-3c-0.6-0.7-1.4-0.8-2.3-1
			c-0.4-0.1-0.7-0.3-1.1-0.4c-0.9-0.2-1.9-0.3-2.8-0.4c-0.1,0-0.3,0.2-0.5,0.3c0.1,0.4,1,0.2,0.5,0.8c-0.1,0-0.2,0-0.2,0
			c-0.7-0.2-0.7-0.2-1,0.4c-0.1,0.2-0.4,0.4-0.5,0.7c-0.6,1.3-0.7,1.3-2,1c-0.8-0.2-1.6-0.4-2.2,0.1c0,0.6,0.1,1.2,0,1.7
			c-0.3,1.5-0.6,3-0.8,4.5c-0.4,3.1-0.7,6.2-0.7,9.3c0,1.6,0.2,3.2,0.2,4.7c-0.1,2.8,0,5.6,0,8.3c0,1.4-0.3,2.8-0.1,4.2
			c0.4,3.4,0.2,6.8,0.2,10.2c0,1.6-0.2,3.2-0.2,4.8c0,1.4,0.1,2.8,0,4.1c-0.1,1.6-0.2,3.2-0.2,4.8c0,0.4,0,0.8,0,1.2
			c0,0.4,0,0.9-0.1,1.2c-0.1,0.3,0.2,0.8-0.3,1.1c-0.2-0.2-0.3-0.3-0.3-0.4c-1.1-2.3-1.3-4.9-2.8-7.1c0-0.1,0-0.1,0-0.2
			c-0.7-1.3-0.7-2.8-1.2-4.2c-1.1-3-2.1-6-3.2-9c-0.3-0.9-0.6-1.7-1-2.6c-0.8-1.5-1.5-3-2-4.6c-1.3-4-2.9-7.8-4.6-11.7
			c-0.5-1-0.7-2.1-1-3.2c-0.2-0.7-0.3-1.5-0.4-2.3c-0.3-1.8-0.9-3.7-0.7-5.6c0.1-0.6-0.2-1.1-0.6-1.5c-0.5-0.5-1-0.9-1.6-1.3
			c0.3-0.5,0.2-1.1-0.4-1.4c-1.6-0.9-3.2-1.5-5.2-0.9c-2.5,0.7-5.1,1.3-7.8,1.9c-0.2,0.8-0.5,1.6-0.5,2.4c-0.1,0.9-0.1,1.8-0.5,2.7
			c-0.1,0.2-0.2,0.6-0.1,0.8c0.7,0.9,0.4,1.8,0.2,2.6c-0.5,3.3-0.3,6.5-0.1,9.8c0.1,2.7,0.1,5.4,0.2,8.1c0.1,1.9-0.2,3.7-0.3,5.6
			c-0.1,3.3,0,6.7-0.1,10c-0.1,4.5-0.2,9-0.6,13.5c-0.3,3.4-0.4,6.8-0.5,10.2c-0.1,2.9-0.3,5.7-0.4,8.6c-0.1,3.6-0.1,7.3-0.2,10.9
			c0,1-0.5,2.1-0.3,3.1c0.4,1.7,0.1,3.4,0.2,5.2c0.3,0.2,0.7,0.3,1,0.5c0.3,0.2,0.6,0.4,0.8,0.6c1.1-0.5,0.9-1.2,0.7-1.9
			c-0.7-2.6-0.2-5.2-0.2-7.8c0.4,2.6,0.2,5.4,1.4,7.9c0.4-0.2,0.6-0.4,0.9-0.5c0.4-0.1,0.7-0.2,1.2-0.3c-0.1-0.9-0.4-1.7-0.4-2.6
			c0-0.9-0.2-1.8,0.2-2.7c0.4-0.7,0.3-1.6,0.5-2.6c0.6,1,0.3,1.8,0.4,2.5c0.1,0.8,0.2,1.7,0.4,2.5c0.2,0.7-0.3,1.5,0.5,2.1
			c1.7-0.6,0.6-1.9,1.3-2.8c0.4,0.4,0.9,0.8,1.3,1.2c0.2,0.6-0.8,1.4,0.1,2.1c1.3-0.3,2.6-0.7,3.3-1.6c1-1.3,1.5-2.8,1.6-4.3
			c0.1-1,0-2-0.2-3c-0.2-1.3,0.2-2.6,0.5-3.9c0.1-0.5,1.3-0.7,0.7-1.5c0.4-0.9,0.1-1.7-0.3-2.5c-0.2-0.5-0.1-1.3,0.2-1.8
			c0.3-0.6,0.4-1.3,0.2-1.8c-0.3-0.7,0-1.2,0.1-1.8c0.1-0.5,0.2-1,0.2-1.4c0-0.6-0.1-1.1,0.1-1.6c0.1-0.4,0-0.9-0.3-1.2
			c-0.3-0.4-0.5-0.8-0.4-1.4c0.1-0.6,0.1-1.3-0.2-1.8c-0.4-0.7-0.2-1.2,0.1-1.8c0.5-0.9,0.6-1.8,0.5-2.8c-0.1-0.8,0-1.5,0.1-2.3
			c0.2-1.2,0-2.3-0.3-3.4c0.3-0.4,0.6-0.6,0.7-0.9c0.1-0.5,0-1,0-1.5c0-2.2-0.7-4.4,0.1-6.6c0-0.1,0-0.3,0-0.4
			c-0.1-1.1-0.3-2.2-0.4-3.3c0-0.4,0-0.7,0-1.1c0.7,1.6,1.1,3.2,1.6,4.8c0.2,0.5,0.5,1,0.8,1.5c0.4,0.6,1.3,2.2,1.2,2.7
			c-0.2,0.9,0.2,1.8,0.4,2.7c0.1,0.3,0,0.5,0,0.8l0,0c0.1,0.1,0.3,0.2,0.3,0.3c0.4,1.3,1.2,2.6,1.3,4c0.1,0.9,0.5,1.7,1,2.5
			c0.7,1.2,1.1,2.4,1.6,3.7c0.3,1,0.8,2,1.3,2.9c0.6,1.1,1,2.2,1.2,3.3c0,0.3,0.1,0.7,0.3,1c1.4,2.2,2.2,4.6,3,7
			c0.8,2.2,1.8,4.3,2.5,6.5c0.5,1.5,1.5,2.2,3.3,2.1c0.7,1.5,1.8,2.6,3.1,3.6c0.7-0.1,1.2-0.2,1.8-0.3c1.7-0.1,2.3-0.3,3.8-1.2
			C195.2,132.2,195.6,131.9,196.1,131.7z M153.7,122.8v2.2c0,0-0.1,0-0.1,0c0-0.7-0.1-1.5-0.1-2.2
			C153.6,122.8,153.7,122.8,153.7,122.8z M153.2,134.6c0-2.4-0.2-4.8,0.5-7.2C153.8,129.9,154,132.3,153.2,134.6z M156,125.6
			c0-0.1,0-0.2,0.1-0.3c0,0,0.2-0.1,0.2,0c0.1,0.1,0.1,0.2,0.1,0.3C156.3,125.6,156.2,125.6,156,125.6z M156.5,127.8
			c0-0.1-0.1-0.1-0.1-0.2c0-0.2,0.1-0.4,0.1-0.9c0.1,0.5,0.2,0.7,0.2,0.8C156.7,127.6,156.5,127.7,156.5,127.8z M157,113.6l0.1-0.1
			l0.1,0.1L157,113.6z M157.1,111.9c-0.1,0-0.1-0.1-0.1-0.1c0-0.2,0.1-0.4,0.1-0.6c0.1,0,0.1,0,0.2,0
			C157.2,111.5,157.1,111.7,157.1,111.9z M157.4,106.2c0-0.3,0.1-0.5,0.2-0.9c0,0.5,0.1,0.9,0.1,1.4
			C157.1,106.7,157.4,106.4,157.4,106.2z M157.5,102.2c0-0.3-0.1-0.6-0.1-0.9c0.1,0,0.2,0,0.3,0c0,0.3,0,0.6,0.1,1
			C157.7,102.2,157.6,102.2,157.5,102.2z M157.6,100c0-0.1-0.1-0.2-0.1-0.4c0-0.1,0.2-0.1,0.3-0.1c0.1,0.1,0.1,0.2,0.2,0.3
			C157.8,99.9,157.7,100,157.6,100z M159.8,133.5c0-0.1,0-0.1,0-0.2c0,0,0.1-0.1,0.1-0.1c0,0.1,0.1,0.1,0.1,0.2
			C160,133.4,159.9,133.5,159.8,133.5z M160.5,116.2c-0.1,0-0.1,0-0.2,0c0.1-0.2,0.1-0.5,0.2-0.7c0,0,0.1,0,0.1,0
			C160.6,115.8,160.5,116,160.5,116.2z M161,107c-0.1,0-0.1,0-0.2,0c0-0.2,0-0.5,0.1-0.7c0.1,0,0.1,0,0.2,0
			C161.1,106.5,161,106.7,161,107z M171.7,88.7c-0.1-0.1-0.1-0.2-0.2-0.3c0,0,0.1-0.1,0.1-0.1c0.1,0.1,0.1,0.2,0.2,0.3
			C171.9,88.6,171.8,88.7,171.7,88.7z M172.7,91.9c0-0.3-0.1-0.6-0.1-0.8c0.1,0,0.1,0,0.2,0c0.1,0.3,0.1,0.6,0.2,0.8
			C172.8,91.9,172.7,91.9,172.7,91.9z M175.6,98.3c-0.1,0.2-0.6,0-0.6-0.3c0-0.2-0.1-0.5-0.1-0.7c0,0,0,0-0.1,0c0-0.1,0-0.1,0-0.2
			c-0.9-0.9-0.8-2.2-1.6-3.7c0.6,0.5,0.8,0.5,0.8,0.7c0.3,1,0.5,2,0.7,3c0,0,0.1,0.1,0.1,0.1c0,0,0,0.1,0,0.1
			c0.2,0.2,0.5,0.3,0.6,0.5C175.6,97.9,175.6,98.2,175.6,98.3z M176.1,93.7c0,0,0.1,0.1,0.1,0.1c0,0.1,0,0.1-0.1,0.1
			c-0.1-0.1-0.1-0.1-0.2-0.2C175.9,93.8,176,93.7,176.1,93.7z M177.5,105.2c-0.5-1.3-0.9-2.6-1.4-3.9c0,0,0,0,0-0.1c0,0,0-0.1,0-0.1
			c0,0,0.1-0.1,0.1-0.1c0,0.1,0,0.2-0.1,0.2c0,0,0,0,0,0.1c0.3,0.1,0.7,0.2,0.7,0.4c0.3,0.6,0.5,1.3,0.7,2c0.2,0.6,0.3,1.2,0.5,2
			C177.8,105.4,177.5,105.3,177.5,105.2z M181,113.7c-0.1-0.1-0.2-0.1-0.2-0.2c0-0.1,0-0.2,0-0.3c0,0,0,0-0.1,0c0,0,0-0.1,0-0.1
			c-0.9-1.2-2-2.3-1.6-3.8c0,0,0,0,0,0c0,0,0,0,0-0.1c-0.6-0.5-0.9-1.1-0.9-1.9c0.3,0.1,0.5,0.2,0.6,0.3c0.5,0.5,0.6,1.1,0.3,1.7
			c0,0,0,0,0,0c0,0,0,0,0,0.1c0.2,0.1,0.5,0.2,0.5,0.3c0.5,1.1,1.1,2.3,1.1,3.5c0,0,0,0.1,0.1,0.1c0,0,0,0.1,0,0.1
			c0.1,0.1,0.2,0.1,0.3,0.2C181.1,113.5,181,113.6,181,113.7z M180,100.5c0-0.2,0-0.3,0.1-0.5c0,0,0,0,0,0
			C180,100.2,180,100.4,180,100.5c0.2,0.1,0.5,0.1,0.6,0.2c0.4,0.6,0.5,1.2,0.5,2.1C179.9,102.2,180.1,101.3,180,100.5z M181.3,105
			c0,0,0.1-0.1,0.2-0.1c0.1,0.1,0.1,0.2,0.2,0.3c-0.1,0-0.1,0.1-0.2,0.1C181.4,105.2,181.3,105.1,181.3,105z M181.5,115
			c0.4,0.5,0.4,0.5,0.5,1.6C181.8,115.9,181.7,115.5,181.5,115z M182.9,108.3l0-0.1l0.1,0L182.9,108.3z M183.4,106.1l-0.1-0.1l0.1,0
			L183.4,106.1z M186.2,127.8c0-0.1,0.1-0.2,0.1-0.3c0,0,0.1,0,0.1,0c0,0.1,0,0.2,0,0.4C186.3,127.8,186.2,127.8,186.2,127.8z"/>
		<path class="st0" d="M217.8,130.9c0.1,0.2,0.4,0.4,0.7,0.6c0.4-0.3,0.7-0.5,1.1-0.7c0.7-0.5,1.5-0.6,2.5-0.5
			c1.3,0.1,2.5,0,3.8-0.3c1.4-0.3,2.2-0.9,2.3-2.1c0.1-0.5,0.2-1.2,0.1-1.6c-0.4-1.1-0.1-2,0.4-3c0.4-0.7,0.4-1.4,0.3-2.2
			c-0.2-2.4-0.2-4.9,0.3-7.3c0.2-0.9,0.2-1.9,0.2-2.9c0.1-2.9,0.1-5.7,0.2-8.6c0-1.3,0.2-2.6,0.2-4c0.1-2.9-0.2-5.8,0.4-8.7
			c0.1-0.6,0-1.2,0-1.9c-0.1-1-0.2-2,0.4-3c0.5-0.8,0.6-1.8,0.2-2.6c-0.3-0.8-0.3-1.5,0.1-2.2c0.2-0.4,0.2-1,0.1-1.4
			c-0.1-1-0.2-1.9-0.4-2.9c-0.1-0.9-0.1-1.7,0.1-2.6c0.2-1.1,0.6-2.1,0.7-3.2c0.1-1.7,0.2-3.5-0.3-5.2c-0.1-0.5-0.4-1.2-0.2-1.6
			c0.7-1.8-0.3-3.4-0.2-5.2c-0.6-0.8-0.1-1.6,0.2-2.2c0.4-0.6,0.4-1.1,0.4-1.7c0.1-0.8-0.1-1.6,0.9-2.3c0.4-0.3,0.4-1,0.4-1.6
			c0.1-0.7,0-1.4,0-2.1c0-1.5,0.2-5.3-0.3-6.8c-0.2-0.6,0-1.4,0.1-2.1c0-0.5,0.1-1,0.2-1.5c0.4-4,0-8.1,0.1-12.1
			c0.1-2.2,0.5-5.8,0.5-5.8h0v-8.8c-0.5,0.1-2.3-1.7-1.7-1.9c-0.7-0.5-1.5-1.2-2.4-1.8h-0.5c0,0,0-0.1,0-0.1c0.1,0-0.1-0.3-0.4-0.4
			c-0.1,0-0.2,0-0.3,0.1c-1.1,0.3-2.3,0.6-3.5,1c-0.5-0.1-1.3-0.2-1.3-0.9c0-1-0.8-1-1.6-1.1C221,7,221,8.4,220.2,9.4
			c-0.2,0.8-0.3,1.7-0.5,2.6c0,0,0,0,0,0c0,0.5-0.1,0.9-0.2,1.3c0,0,0,0,0,0c-0.5,2.8-0.8,5.7-0.9,8.2c0,0,0,0,0,0
			c0,0.1,0,0.2,0,0.2c0,1.6,0.1,3.2,0,4.7c-0.2,2.2-0.4,4.4,0,6.6c0.2,1.1-0.4,2.1-0.2,3.1c0.4,2.3,0.1,4.7,0.3,7.1
			c0.2,1.5,0,5.3,0,6.8c0,2.3,0,4.6,0,6.9c0,1.2-0.1,2.5-0.1,3.7c0,1.1-0.2,2.2-0.2,3.3c0,2.3-0.2,4.7-0.1,7c0,0.7,0.2,1.3,0,2
			c-0.2,1.1,0.3,2.2-0.3,3.2c0.3,0.6,0.9,1.2,0.2,1.8c0,1.2-0.1,2.5,0.1,3.7c0.1,0.6,0.1,1.1-0.1,1.6c-0.1,0.5-0.2,1-0.2,1.4
			c-0.1,0.9-0.4,1.9-0.1,2.7c0.3,1-0.2,1.7-0.2,2.6c0,0.3,0.1,0.6,0.1,0.8c0,0.3,0.1,0.7,0,1c-0.5,1.4-0.3,2.9-0.3,4.4
			c0,1.4-0.4,2.9,0.2,4.3c0.1,0.2,0,0.4-0.1,0.6c-0.9,1.1-0.5,2.4-0.6,3.6c-0.1,0.8,0,1.5,0,2.3c0,0.7-0.3,1.5,0.1,2.1
			c0.5,0.9-0.2,1.4-0.2,2.1c0.1,1.7-0.1,3.5-0.5,5.2c-0.2,1,0.5,2.1-0.5,3c-0.1,0.1,0,0.4,0,0.6c0,0.5,0.1,1,0,1.4
			C215.6,124.9,216.3,128,217.8,130.9z M228.7,104.1c-0.1-0.1-0.1-0.2-0.2-0.3c0.1,0,0.1-0.1,0.2-0.1c0,0.1,0.1,0.1,0.1,0.2
			C228.8,104,228.7,104,228.7,104.1z M228.5,102.8c0.1,0,0.2,0.1,0.3,0.1c0,0-0.1,0.1-0.1,0.1c-0.1,0-0.2-0.1-0.3-0.2
			C228.4,102.9,228.4,102.8,228.5,102.8z M228.1,109.5L228.1,109.5c0.1,0,0.2-0.1,0.3-0.1c0.1,0,0.1-0.1,0.2-0.1
			c0,0.1-0.1,0.2-0.1,0.2C228.4,109.6,228.3,109.5,228.1,109.5C228.2,109.5,228.1,109.5,228.1,109.5c0,0.2,0.1,0.4,0.1,0.6
			c0,0,0,0-0.1,0C228.2,109.9,228.2,109.7,228.1,109.5C228.1,109.5,228.1,109.5,228.1,109.5C228.1,109.5,228.1,109.5,228.1,109.5z
			 M227.3,120l-0.1,0.1l-0.1-0.2L227.3,120z M226.8,100c0,0.3,0,0.5,0,0.8c-0.1,0-0.1,0-0.2,0c0-0.2-0.1-0.5-0.1-0.7
			C226.7,100,226.7,100,226.8,100z M226.9,114.6c-0.1,0.1-0.2,0.1-0.2,0.2c0-0.1-0.1-0.3-0.1-0.4c0,0,0.1-0.1,0.2-0.1
			C226.8,114.4,226.8,114.5,226.9,114.6z M226.9,116.8c0.1,0.2,0.1,0.4,0.1,0.6c0,0.1-0.2,0.1-0.3,0.2c-0.1-0.2-0.2-0.4-0.2-0.5
			C226.5,117,226.7,116.9,226.9,116.8z M223.8,81.3l0.1,0.2l-0.1,0L223.8,81.3z M223.7,94.4c0.1,0,0.1,0,0.2,0c0,0.3,0,0.6,0.1,0.9
			c-0.1,0-0.2,0-0.3,0V94.4z M223.7,98.6c0,0,0.1,0,0.2-0.1c0,0,0.1,0.1,0.1,0.1c0,0.7,0,1.5-0.1,2.2c0,0-0.1,0.1-0.2,0.1
			c0-0.1-0.1-0.2-0.1-0.4C223.7,99.9,223.7,99.2,223.7,98.6z M223.7,102.1c0.1,0,0.2,0,0.3,0c0,0.2,0,0.5,0,0.7
			c0,0.1-0.2,0.2-0.3,0.3c-0.1-0.1-0.2-0.2-0.2-0.3C223.6,102.6,223.7,102.3,223.7,102.1z M222.8,114.3c0.1-2.1,0.5-4.1,0.2-6.2
			c-0.1-1-0.1-2.1-0.1-3.1c0-0.1,0.3-0.2,0.7-0.4c0.9,2.7,0.2,5.3,0.4,7.9c0.2,2.6-0.1,5.2-0.2,7.8c-0.5,0.2-0.9,0-0.9-0.4
			c-0.1-0.7,0-1.4,0-2c0-0.5,0-1-0.1-1.4C222.6,115.7,222.8,115,222.8,114.3z M222.3,126.4c0,0,0.1,0,0.1,0c0.5-0.8,0.2-1.7,0.3-2.5
			c0.1-0.9,0.2-1.8,0.3-2.6c0-0.1,0.3-0.3,0.5-0.3c0.1,0,0.5,0.2,0.5,0.3c-0.2,1.7-0.2,3.4-1.1,5c-0.1,0.1-0.3,0.2-0.5,0.2
			C222.4,126.4,222.4,126.4,222.3,126.4c0.1,0.1,0.1,0.1,0.1,0.1c0.4,0.9,0.4,0.9,0.2,2.4c-0.4,0.1-0.6-0.2-0.5-0.4
			c0.1-0.6,0.2-1.3,0.3-1.9C222.3,126.5,222.3,126.5,222.3,126.4z M220.8,113.5c0.2,0.5,0,0.9-0.4,1.2
			C220.1,114.1,220,113.7,220.8,113.5z M218.6,21.7C218.6,21.7,218.6,21.7,218.6,21.7C218.6,21.7,218.6,21.7,218.6,21.7
			C218.6,21.7,218.6,21.7,218.6,21.7z"/>
	</g>
	<path class="st0" d="M218.6,21.7C218.6,21.7,218.6,21.7,218.6,21.7C218.6,21.7,218.6,21.7,218.6,21.7
		C218.6,21.7,218.6,21.7,218.6,21.7z"/>
</g>
</svg>
